  0
SECTION
  2
ENTITIES
  0
POLYLINE
 70
     1
  0
VERTEX
 10
0
 20
0
  0
VERTEX
 10
0.790569
 20
0
  0
VERTEX
 10
0.667592
 20
-0.607565
  0
VERTEX
 10
0.0722994
 20
-0.780441
  0
SEQEND
  0
POLYLINE
 70
     1
  0
VERTEX
 10
0
 20
0
  0
VERTEX
 10
0.790569
 20
0
  0
VERTEX
 10
0.763887
 20
0.751896
  0
VERTEX
 10
0.0177878
 20
0.751896
  0
SEQEND
  0
POLYLINE
 70
     1
  0
VERTEX
 10
0.0722994
 20
-0.780441
  0
VERTEX
 10
-0.000626034
 20
0.00675777
  0
VERTEX
 10
-0.776586
 20
-0.144522
  0
VERTEX
 10
-0.53962
 20
-0.717328
  0
SEQEND
  0
POLYLINE
 70
     1
  0
VERTEX
 10
0.667592
 20
-0.607565
  0
VERTEX
 10
0.0722994
 20
-0.780441
  0
VERTEX
 10
0.439009
 20
-1.48082
  0
VERTEX
 10
1.0992
 20
-1.04591
  0
SEQEND
  0
POLYLINE
 70
     1
  0
VERTEX
 10
0.667592
 20
-0.607565
  0
VERTEX
 10
0.790569
 20
2.55872e-17
  0
VERTEX
 10
1.51891
 20
-0.307442
  0
VERTEX
 10
1.14017
 20
-1.00139
  0
SEQEND
  0
POLYLINE
 70
     1
  0
VERTEX
 10
0.763887
 20
0.751896
  0
VERTEX
 10
0.790569
 20
2.05456e-17
  0
VERTEX
 10
1.57915
 20
0.0560382
  0
VERTEX
 10
1.50811
 20
0.804782
  0
SEQEND
  0
POLYLINE
 70
     1
  0
VERTEX
 10
0.763887
 20
0.751896
  0
VERTEX
 10
0.0177878
 20
0.751896
  0
VERTEX
 10
0.0711514
 20
1.04876
  0
VERTEX
 10
0.683843
 20
1.04876
  0
SEQEND
  0
POLYLINE
 70
     1
  0
VERTEX
 10
-0.776586
 20
-0.144522
  0
VERTEX
 10
-0.53962
 20
-0.717328
  0
VERTEX
 10
-0.937158
 20
-1.19296
  0
VERTEX
 10
-1.43111
 20
-0.575697
  0
SEQEND
  0
POLYLINE
 70
     1
  0
VERTEX
 10
0.439009
 20
-1.48082
  0
VERTEX
 10
1.0992
 20
-1.04591
  0
VERTEX
 10
1.33074
 20
-1.62093
  0
VERTEX
 10
0.928723
 20
-2.09278
  0
SEQEND
  0
POLYLINE
 70
     1
  0
VERTEX
 10
1.51891
 20
-0.307442
  0
VERTEX
 10
1.14017
 20
-1.00139
  0
VERTEX
 10
1.7324
 20
-1.1845
  0
VERTEX
 10
2.16933
 20
-0.744789
  0
SEQEND
  0
POLYLINE
 70
     1
  0
VERTEX
 10
1.57915
 20
0.0560382
  0
VERTEX
 10
1.50811
 20
0.804782
  0
VERTEX
 10
2.249
 20
0.892802
  0
VERTEX
 10
2.3642
 20
0.149304
  0
SEQEND
  0
POLYLINE
 70
     1
  0
VERTEX
 10
0.763887
 20
0.751896
  0
VERTEX
 10
1.50811
 20
0.804782
  0
VERTEX
 10
1.43384
 20
1.09712
  0
VERTEX
 10
0.822688
 20
1.05369
  0
SEQEND
  0
POLYLINE
 70
     1
  0
VERTEX
 10
0.0177878
 20
0.751896
  0
VERTEX
 10
0.0711514
 20
1.04876
  0
VERTEX
 10
-0.503184
 20
1.26214
  0
VERTEX
 10
-0.681604
 20
1.01173
  0
SEQEND
  0
POLYLINE
 70
     1
  0
VERTEX
 10
0.0711514
 20
1.04876
  0
VERTEX
 10
0.683843
 20
1.04876
  0
VERTEX
 10
0.603798
 20
1.22299
  0
VERTEX
 10
0.124515
 20
1.22299
  0
SEQEND
  0
POLYLINE
 70
     1
  0
VERTEX
 10
-1.43111
 20
-0.575697
  0
VERTEX
 10
-0.770919
 20
-0.140788
  0
VERTEX
 10
-1.20683
 20
0.47243
  0
VERTEX
 10
-1.82989
 20
0.0619849
  0
SEQEND
  0
POLYLINE
 70
     1
  0
VERTEX
 10
-0.937158
 20
-1.19296
  0
VERTEX
 10
-1.43111
 20
-0.575697
  0
VERTEX
 10
-1.99588
 20
-1.1289
  0
VERTEX
 10
-1.48288
 20
-1.47688
  0
SEQEND
  0
POLYLINE
 70
     1
  0
VERTEX
 10
0.928723
 20
-2.09278
  0
VERTEX
 10
1.33074
 20
-1.62093
  0
VERTEX
 10
1.93523
 20
-1.75821
  0
VERTEX
 10
1.61069
 20
-2.47909
  0
SEQEND
  0
POLYLINE
 70
     1
  0
VERTEX
 10
0.439009
 20
-1.48082
  0
VERTEX
 10
0.932963
 20
-2.09807
  0
VERTEX
 10
0.381752
 20
-2.38167
  0
VERTEX
 10
-0.125169
 20
-2.02489
  0
SEQEND
  0
POLYLINE
 70
     1
  0
VERTEX
 10
2.249
 20
0.892802
  0
VERTEX
 10
2.3642
 20
0.149304
  0
VERTEX
 10
3.14066
 20
0.297983
  0
VERTEX
 10
2.98179
 20
1.03312
  0
SEQEND
  0
POLYLINE
 70
     1
  0
VERTEX
 10
2.249
 20
0.892802
  0
VERTEX
 10
1.50811
 20
0.804782
  0
VERTEX
 10
1.52608
 20
1.10587
  0
VERTEX
 10
2.13449
 20
1.17815
  0
SEQEND
  0
POLYLINE
 70
     1
  0
VERTEX
 10
1.43384
 20
1.09712
  0
VERTEX
 10
0.822688
 20
1.05369
  0
VERTEX
 10
0.890182
 20
1.23315
  0
VERTEX
 10
1.36826
 20
1.26713
  0
SEQEND
  0
POLYLINE
 70
     1
  0
VERTEX
 10
0.0711514
 20
1.04876
  0
VERTEX
 10
-0.503184
 20
1.26214
  0
VERTEX
 10
-0.367473
 20
1.39758
  0
VERTEX
 10
0.0818054
 20
1.23067
  0
SEQEND
  0
POLYLINE
 70
     1
  0
VERTEX
 10
-0.503184
 20
1.26214
  0
VERTEX
 10
-0.681604
 20
1.01173
  0
VERTEX
 10
-1.15557
 20
1.58795
  0
VERTEX
 10
-0.8924
 20
1.73532
  0
SEQEND
  0
POLYLINE
 70
     1
  0
VERTEX
 10
0.603798
 20
1.22299
  0
VERTEX
 10
0.124515
 20
1.22299
  0
VERTEX
 10
0.142303
 20
1.43603
  0
VERTEX
 10
0.577116
 20
1.43603
  0
SEQEND
  0
POLYLINE
 70
     1
  0
VERTEX
 10
-1.82989
 20
0.0619849
  0
VERTEX
 10
-1.43111
 20
-0.575697
  0
VERTEX
 10
-2.11113
 20
-0.978901
  0
VERTEX
 10
-2.47166
 20
-0.318538
  0
SEQEND
  0
POLYLINE
 70
     1
  0
VERTEX
 10
-1.48288
 20
-1.47688
  0
VERTEX
 10
-1.99588
 20
-1.1289
  0
VERTEX
 10
-2.30106
 20
-1.85819
  0
VERTEX
 10
-1.54491
 20
-2.08891
  0
SEQEND
  0
POLYLINE
 70
     1
  0
VERTEX
 10
3.14066
 20
0.297983
  0
VERTEX
 10
2.98179
 20
1.03312
  0
VERTEX
 10
3.70712
 20
1.20793
  0
VERTEX
 10
3.90923
 20
0.483212
  0
SEQEND
  0
POLYLINE
 70
     1
  0
VERTEX
 10
2.249
 20
0.892802
  0
VERTEX
 10
2.98179
 20
1.03312
  0
VERTEX
 10
2.87355
 20
1.31465
  0
VERTEX
 10
2.27179
 20
1.19942
  0
SEQEND
  0
POLYLINE
 70
     1
  0
VERTEX
 10
1.52608
 20
1.10587
  0
VERTEX
 10
2.13449
 20
1.17815
  0
VERTEX
 10
2.03445
 20
1.34172
  0
VERTEX
 10
1.55852
 20
1.28518
  0
SEQEND
  0
POLYLINE
 70
     1
  0
VERTEX
 10
0.890182
 20
1.23315
  0
VERTEX
 10
1.36826
 20
1.26713
  0
VERTEX
 10
1.33541
 20
1.47837
  0
VERTEX
 10
0.901695
 20
1.44755
  0
SEQEND
  0
POLYLINE
 70
     1
  0
VERTEX
 10
-0.367473
 20
1.39758
  0
VERTEX
 10
0.0818054
 20
1.23067
  0
VERTEX
 10
0.139325
 20
1.43657
  0
VERTEX
 10
-0.268268
 20
1.58799
  0
SEQEND
  0
POLYLINE
 70
     1
  0
VERTEX
 10
-0.503184
 20
1.26214
  0
VERTEX
 10
-0.367473
 20
1.39758
  0
VERTEX
 10
-0.533505
 20
1.84719
  0
VERTEX
 10
-0.715432
 20
1.83689
  0
SEQEND
  0
POLYLINE
 70
     1
  0
VERTEX
 10
-1.15557
 20
1.58795
  0
VERTEX
 10
-0.8924
 20
1.73532
  0
VERTEX
 10
-1.09246
 20
2.31443
  0
VERTEX
 10
-1.39919
 20
2.29315
  0
SEQEND
  0
POLYLINE
 70
     1
  0
VERTEX
 10
0.142303
 20
1.43603
  0
VERTEX
 10
0.577116
 20
1.43603
  0
VERTEX
 10
0.509479
 20
1.64009
  0
VERTEX
 10
0.183346
 20
1.67611
  0
SEQEND
  0
POLYLINE
 70
     1
  0
VERTEX
 10
3.70712
 20
1.20793
  0
VERTEX
 10
2.98179
 20
1.03312
  0
VERTEX
 10
2.96411
 20
1.33422
  0
VERTEX
 10
3.55975
 20
1.47777
  0
SEQEND
  0
POLYLINE
 70
     1
  0
VERTEX
 10
2.87355
 20
1.31465
  0
VERTEX
 10
2.27179
 20
1.19942
  0
VERTEX
 10
2.31764
 20
1.3856
  0
VERTEX
 10
2.78837
 20
1.47573
  0
SEQEND
  0
POLYLINE
 70
     1
  0
VERTEX
 10
2.03445
 20
1.34172
  0
VERTEX
 10
1.55852
 20
1.28518
  0
VERTEX
 10
1.55105
 20
1.49883
  0
VERTEX
 10
1.98282
 20
1.55013
  0
SEQEND
  0
POLYLINE
 70
     1
  0
VERTEX
 10
1.33541
 20
1.47837
  0
VERTEX
 10
0.901695
 20
1.44755
  0
VERTEX
 10
0.954698
 20
1.65589
  0
VERTEX
 10
1.27746
 20
1.71494
  0
SEQEND
  0
POLYLINE
 70
     1
  0
VERTEX
 10
-0.533505
 20
1.84719
  0
VERTEX
 10
-0.715432
 20
1.83689
  0
VERTEX
 10
-0.569392
 20
2.43192
  0
VERTEX
 10
-0.419265
 20
2.31266
  0
SEQEND
  0
POLYLINE
 70
     1
  0
VERTEX
 10
0.183346
 20
1.67611
  0
VERTEX
 10
0.509479
 20
1.64009
  0
VERTEX
 10
0.728128
 20
1.88474
  0
VERTEX
 10
0.34804
 20
2.05914
  0
SEQEND
  0
POLYLINE
 70
     1
  0
VERTEX
 10
2.96411
 20
1.33422
  0
VERTEX
 10
3.55975
 20
1.47777
  0
VERTEX
 10
3.44111
 20
1.6284
  0
VERTEX
 10
2.97517
 20
1.5161
  0
SEQEND
  0
POLYLINE
 70
     1
  0
VERTEX
 10
2.31764
 20
1.3856
  0
VERTEX
 10
2.78837
 20
1.47573
  0
VERTEX
 10
2.73083
 20
1.68163
  0
VERTEX
 10
2.30378
 20
1.59985
  0
SEQEND
  0
POLYLINE
 70
     1
  0
VERTEX
 10
1.55105
 20
1.49883
  0
VERTEX
 10
1.98282
 20
1.55013
  0
VERTEX
 10
1.89158
 20
1.74478
  0
VERTEX
 10
1.56348
 20
1.74208
  0
SEQEND
  0
POLYLINE
 70
     1
  0
VERTEX
 10
-0.419265
 20
2.31266
  0
VERTEX
 10
-0.533505
 20
1.84719
  0
VERTEX
 10
-0.322364
 20
1.81368
  0
VERTEX
 10
-0.218724
 20
2.23596
  0
SEQEND
  0
POLYLINE
 70
     1
  0
VERTEX
 10
0.728128
 20
1.88474
  0
VERTEX
 10
0.34804
 20
2.05914
  0
VERTEX
 10
0.532652
 20
2.43438
  0
VERTEX
 10
0.771303
 20
2.2092
  0
SEQEND
  0
POLYLINE
 70
     1
  0
VERTEX
 10
0.34804
 20
2.05914
  0
VERTEX
 10
0.18285
 20
1.67496
  0
VERTEX
 10
-0.0669978
 20
1.88765
  0
VERTEX
 10
-0.0388465
 20
2.21456
  0
SEQEND
  0
POLYLINE
 70
     1
  0
VERTEX
 10
3.44111
 20
1.6284
  0
VERTEX
 10
2.97517
 20
1.5161
  0
VERTEX
 10
2.94254
 20
1.72738
  0
VERTEX
 10
3.36525
 20
1.82926
  0
SEQEND
  0
POLYLINE
 70
     1
  0
VERTEX
 10
2.30378
 20
1.59985
  0
VERTEX
 10
2.73083
 20
1.68163
  0
VERTEX
 10
2.64223
 20
1.91313
  0
VERTEX
 10
2.3308
 20
1.80983
  0
SEQEND
  0
POLYLINE
 70
     1
  0
VERTEX
 10
0.34804
 20
2.05914
  0
VERTEX
 10
0.532652
 20
2.43438
  0
VERTEX
 10
0.208626
 20
2.48603
  0
VERTEX
 10
-0.0215239
 20
2.25216
  0
SEQEND
  0
POLYLINE
 70
     1
  0
VERTEX
 10
3.36525
 20
1.82926
  0
VERTEX
 10
2.94254
 20
1.72738
  0
VERTEX
 10
2.92764
 20
1.97482
  0
VERTEX
 10
3.25393
 20
2.00933
  0
SEQEND
  0
POLYLINE
 70
     1
  0
VERTEX
 10
0
 20
5.21337
  0
VERTEX
 10
0.790569
 20
5.21337
  0
VERTEX
 10
0.667592
 20
4.60581
  0
VERTEX
 10
0.0722994
 20
4.43293
  0
SEQEND
  0
POLYLINE
 70
     1
  0
VERTEX
 10
6.69993
 20
0
  0
VERTEX
 10
6.91491
 20
0
  0
VERTEX
 10
6.7781
 20
-0.412731
  0
VERTEX
 10
6.56014
 20
-0.294676
  0
SEQEND
  0
POLYLINE
 70
     1
  0
VERTEX
 10
6.69993
 20
0
  0
VERTEX
 10
6.91491
 20
0
  0
VERTEX
 10
6.7781
 20
0.412732
  0
VERTEX
 10
6.56014
 20
0.294679
  0
SEQEND
  0
POLYLINE
 70
     1
  0
VERTEX
 10
6.7781
 20
0.412732
  0
VERTEX
 10
6.56014
 20
0.294679
  0
VERTEX
 10
6.39099
 20
0.575837
  0
VERTEX
 10
6.51222
 20
0.753372
  0
SEQEND
  0
POLYLINE
 70
     1
  0
VERTEX
 10
6.91491
 20
0
  0
VERTEX
 10
6.7781
 20
0.412732
  0
VERTEX
 10
6.97473
 20
0.496644
  0
VERTEX
 10
7.12552
 20
0.0417005
  0
SEQEND
  0
POLYLINE
 70
     1
  0
VERTEX
 10
0
 20
8.07709
  0
VERTEX
 10
0.7461
 20
8.07709
  0
VERTEX
 10
0.763887
 20
7.32519
  0
VERTEX
 10
-0.026682
 20
7.32519
  0
SEQEND
  0
POLYLINE
 70
     1
  0
VERTEX
 10
0.7461
 20
8.07709
  0
VERTEX
 10
0.533968
 20
8.28922
  0
VERTEX
 10
0.212132
 20
8.28922
  0
VERTEX
 10
-1.17988e-16
 20
8.07709
  0
SEQEND
  0
POLYLINE
 70
     0
  0
SEQEND
  0
POLYLINE
 70
     0
  0
VERTEX
 10
0.43305
 20
8.12959
  0
VERTEX
 10
0.40305
 20
8.12959
  0
VERTEX
 10
0.40305
 20
8.18959
  0
VERTEX
 10
0.43305
 20
8.18959
  0
VERTEX
 10
0.37305
 20
8.18959
  0
VERTEX
 10
0.37305
 20
8.16959
  0
SEQEND
  0
POLYLINE
 70
     1
  0
VERTEX
 10
0.763887
 20
7.32519
  0
VERTEX
 10
0.970943
 20
7.54228
  0
VERTEX
 10
0.963189
 20
7.87003
  0
VERTEX
 10
0.7461
 20
8.07709
  0
SEQEND
  0
POLYLINE
 70
     0
  0
SEQEND
  0
POLYLINE
 70
     0
  0
VERTEX
 10
0.808898
 20
7.6424
  0
VERTEX
 10
0.807479
 20
7.70238
  0
VERTEX
 10
0.83747
 20
7.70309
  0
VERTEX
 10
0.838889
 20
7.64311
  0
VERTEX
 10
0.868881
 20
7.64382
  0
VERTEX
 10
0.867462
 20
7.7038
  0
SEQEND
  0
POLYLINE
 70
     1
  0
VERTEX
 10
-0.026682
 20
7.32519
  0
VERTEX
 10
0.18545
 20
7.11306
  0
VERTEX
 10
0.551755
 20
7.11306
  0
VERTEX
 10
0.763887
 20
7.32519
  0
SEQEND
  0
POLYLINE
 70
     0
  0
SEQEND
  0
POLYLINE
 70
     0
  0
VERTEX
 10
0.308603
 20
7.27269
  0
VERTEX
 10
0.368603
 20
7.27269
  0
VERTEX
 10
0.368603
 20
7.24269
  0
VERTEX
 10
0.338603
 20
7.24269
  0
VERTEX
 10
0.368603
 20
7.24269
  0
VERTEX
 10
0.368603
 20
7.21269
  0
VERTEX
 10
0.308603
 20
7.21269
  0
SEQEND
  0
POLYLINE
 70
     1
  0
VERTEX
 10
0
 20
8.07709
  0
VERTEX
 10
-0.219522
 20
7.87261
  0
VERTEX
 10
-0.231158
 20
7.54471
  0
VERTEX
 10
-0.026682
 20
7.32519
  0
SEQEND
  0
POLYLINE
 70
     0
  0
SEQEND
  0
POLYLINE
 70
     0
  0
VERTEX
 10
-0.0636801
 20
7.76296
  0
VERTEX
 10
-0.0936613
 20
7.76403
  0
VERTEX
 10
-0.0957891
 20
7.70406
  0
VERTEX
 10
-0.0807985
 20
7.70353
  0
VERTEX
 10
-0.12577
 20
7.70513
  0
SEQEND
  0
POLYLINE
 70
     1
  0
VERTEX
 10
-0.53962
 20
-0.717328
  0
VERTEX
 10
-0.350371
 20
-0.950104
  0
VERTEX
 10
-0.160477
 20
-0.96969
  0
VERTEX
 10
0.0722994
 20
-0.780441
  0
SEQEND
  0
POLYLINE
 70
     0
  0
SEQEND
  0
POLYLINE
 70
     0
  0
VERTEX
 10
-0.239046
 20
-0.801107
  0
VERTEX
 10
-0.29873
 20
-0.794952
  0
VERTEX
 10
-0.301808
 20
-0.824793
  0
VERTEX
 10
-0.242124
 20
-0.830949
  0
VERTEX
 10
-0.245202
 20
-0.860791
  0
VERTEX
 10
-0.304886
 20
-0.854635
  0
SEQEND
  0
POLYLINE
 70
     1
  0
VERTEX
 10
2.3642
 20
0.149304
  0
VERTEX
 10
2.61244
 20
-0.0191481
  0
VERTEX
 10
2.97221
 20
0.0497411
  0
VERTEX
 10
3.14066
 20
0.297983
  0
SEQEND
  0
POLYLINE
 70
     0
  0
SEQEND
  0
POLYLINE
 70
     0
  0
VERTEX
 10
2.72302
 20
0.164558
  0
VERTEX
 10
2.70337
 20
0.160796
  0
VERTEX
 10
2.7109
 20
0.12151
  0
VERTEX
 10
2.76983
 20
0.132794
  0
VERTEX
 10
2.77359
 20
0.113151
  0
VERTEX
 10
2.71466
 20
0.101867
  0
VERTEX
 10
2.7109
 20
0.12151
  0
SEQEND
  0
POLYLINE
 70
     1
  0
VERTEX
 10
1.93523
 20
-1.75821
  0
VERTEX
 10
1.77535
 20
-1.50437
  0
VERTEX
 10
1.58458
 20
-1.46104
  0
VERTEX
 10
1.33074
 20
-1.62093
  0
SEQEND
  0
POLYLINE
 70
     0
  0
SEQEND
  0
POLYLINE
 70
     0
  0
VERTEX
 10
1.70755
 20
-1.63216
  0
VERTEX
 10
1.70312
 20
-1.65166
  0
VERTEX
 10
1.64461
 20
-1.63837
  0
VERTEX
 10
1.64904
 20
-1.61887
  0
VERTEX
 10
1.68057
 20
-1.60138
  0
VERTEX
 10
1.685
 20
-1.58188
  0
SEQEND
  0
POLYLINE
 70
     1
  0
VERTEX
 10
1.61069
 20
-2.47909
  0
VERTEX
 10
1.89121
 20
-2.37274
  0
VERTEX
 10
2.04158
 20
-2.03873
  0
VERTEX
 10
1.93523
 20
-1.75821
  0
SEQEND
  0
POLYLINE
 70
     0
  0
SEQEND
  0
POLYLINE
 70
     0
  0
VERTEX
 10
1.80441
 20
-2.17668
  0
VERTEX
 10
1.7962
 20
-2.19491
  0
VERTEX
 10
1.83268
 20
-2.21133
  0
VERTEX
 10
1.85731
 20
-2.15662
  0
VERTEX
 10
1.87554
 20
-2.16483
  0
VERTEX
 10
1.85091
 20
-2.21954
  0
VERTEX
 10
1.83268
 20
-2.21133
  0
SEQEND
  0
POLYLINE
 70
     1
  0
VERTEX
 10
-2.30106
 20
-1.85819
  0
VERTEX
 10
-2.41486
 20
-1.58061
  0
VERTEX
 10
-2.27346
 20
-1.2427
  0
VERTEX
 10
-1.99588
 20
-1.1289
  0
SEQEND
  0
POLYLINE
 70
     0
  0
SEQEND
  0
POLYLINE
 70
     0
  0
VERTEX
 10
-2.21879
 20
-1.44786
  0
VERTEX
 10
-2.19111
 20
-1.45944
  0
VERTEX
 10
-2.17953
 20
-1.43177
  0
VERTEX
 10
-2.20721
 20
-1.42019
  0
VERTEX
 10
-2.20142
 20
-1.40635
  0
VERTEX
 10
-2.22909
 20
-1.39477
  0
VERTEX
 10
-2.25225
 20
-1.45012
  0
VERTEX
 10
-2.22458
 20
-1.4617
  0
VERTEX
 10
-2.20721
 20
-1.42019
  0
SEQEND
  0
POLYLINE
 70
     1
  0
VERTEX
 10
-1.54491
 20
-2.08891
  0
VERTEX
 10
-1.80972
 20
-2.2299
  0
VERTEX
 10
-2.16007
 20
-2.123
  0
VERTEX
 10
-2.30106
 20
-1.85819
  0
SEQEND
  0
POLYLINE
 70
     0
  0
SEQEND
  0
POLYLINE
 70
     0
  0
VERTEX
 10
-1.94414
 20
-2.0429
  0
VERTEX
 10
-1.93831
 20
-2.02377
  0
VERTEX
 10
-1.9957
 20
-2.00626
  0
VERTEX
 10
-2.00153
 20
-2.02539
  0
VERTEX
 10
-1.94414
 20
-2.0429
  0
VERTEX
 10
-1.95582
 20
-2.08116
  0
VERTEX
 10
-1.97495
 20
-2.07532
  0
SEQEND
  0
POLYLINE
 70
     1
  0
VERTEX
 10
-1.48288
 20
-1.47688
  0
VERTEX
 10
-1.29322
 20
-1.70932
  0
VERTEX
 10
-1.31247
 20
-1.89925
  0
VERTEX
 10
-1.54491
 20
-2.08891
  0
SEQEND
  0
POLYLINE
 70
     0
  0
SEQEND
  0
POLYLINE
 70
     0
  0
VERTEX
 10
-1.46771
 20
-1.84789
  0
VERTEX
 10
-1.46469
 20
-1.81804
  0
VERTEX
 10
-1.40499
 20
-1.82409
  0
VERTEX
 10
-1.40802
 20
-1.85394
  0
VERTEX
 10
-1.40197
 20
-1.79424
  0
VERTEX
 10
-1.42187
 20
-1.79223
  0
SEQEND
  0
POLYLINE
 70
     0
  0
VERTEX
 10
-1.39894
 20
-1.76439
  0
VERTEX
 10
-1.39289
 20
-1.7047
  0
VERTEX
 10
-1.45259
 20
-1.69865
  0
VERTEX
 10
-1.45864
 20
-1.75834
  0
VERTEX
 10
-1.39894
 20
-1.76439
  0
SEQEND
  0
POLYLINE
 70
     1
  0
VERTEX
 10
3.90923
 20
0.483212
  0
VERTEX
 10
3.7527
 20
0.227282
  0
VERTEX
 10
3.39659
 20
0.141458
  0
VERTEX
 10
3.14066
 20
0.297983
  0
SEQEND
  0
POLYLINE
 70
     0
  0
SEQEND
  0
POLYLINE
 70
     0
  0
VERTEX
 10
3.52969
 20
0.306879
  0
VERTEX
 10
3.52266
 20
0.336044
  0
VERTEX
 10
3.4935
 20
0.329015
  0
VERTEX
 10
3.50053
 20
0.29985
  0
VERTEX
 10
3.48594
 20
0.296336
  0
VERTEX
 10
3.49297
 20
0.267171
  0
VERTEX
 10
3.5513
 20
0.281229
  0
VERTEX
 10
3.54427
 20
0.310394
  0
VERTEX
 10
3.50053
 20
0.29985
  0
SEQEND
  0
POLYLINE
 70
     1
  0
VERTEX
 10
3.70712
 20
1.20793
  0
VERTEX
 10
3.96844
 20
1.06058
  0
VERTEX
 10
4.05658
 20
0.744531
  0
VERTEX
 10
3.90923
 20
0.483212
  0
SEQEND
  0
POLYLINE
 70
     0
  0
SEQEND
  0
POLYLINE
 70
     0
  0
VERTEX
 10
3.87486
 20
0.801878
  0
VERTEX
 10
3.8668
 20
0.830775
  0
VERTEX
 10
3.9246
 20
0.846893
  0
VERTEX
 10
3.93265
 20
0.817996
  0
VERTEX
 10
3.91654
 20
0.87579
  0
VERTEX
 10
3.89727
 20
0.870418
  0
SEQEND
  0
POLYLINE
 70
     0
  0
VERTEX
 10
3.85068
 20
0.88857
  0
VERTEX
 10
3.84262
 20
0.917467
  0
VERTEX
 10
3.90042
 20
0.933585
  0
VERTEX
 10
3.90848
 20
0.904688
  0
VERTEX
 10
3.89236
 20
0.962482
  0
VERTEX
 10
3.8731
 20
0.95711
  0
SEQEND
  0
POLYLINE
 70
     1
  0
VERTEX
 10
-1.20683
 20
0.47243
  0
VERTEX
 10
-0.911029
 20
0.422439
  0
VERTEX
 10
-0.720928
 20
0.155017
  0
VERTEX
 10
-0.770919
 20
-0.140788
  0
SEQEND
  0
POLYLINE
 70
     0
  0
SEQEND
  0
POLYLINE
 70
     0
  0
VERTEX
 10
-0.911323
 20
0.147336
  0
VERTEX
 10
-0.886872
 20
0.164718
  0
VERTEX
 10
-0.921635
 20
0.213621
  0
VERTEX
 10
-0.933861
 20
0.20493
  0
VERTEX
 10
-0.897184
 20
0.231002
  0
SEQEND
  0
POLYLINE
 70
     1
  0
VERTEX
 10
-1.82989
 20
0.0619849
  0
VERTEX
 10
-1.76944
 20
0.355831
  0
VERTEX
 10
-1.50068
 20
0.53288
  0
VERTEX
 10
-1.20683
 20
0.47243
  0
SEQEND
  0
POLYLINE
 70
     0
  0
SEQEND
  0
POLYLINE
 70
     0
  0
VERTEX
 10
-1.49714
 20
0.344057
  0
VERTEX
 10
-1.52219
 20
0.327553
  0
VERTEX
 10
-1.5552
 20
0.377658
  0
VERTEX
 10
-1.53015
 20
0.394162
  0
VERTEX
 10
-1.58025
 20
0.361155
  0
VERTEX
 10
-1.56925
 20
0.344453
  0
SEQEND
  0
POLYLINE
 70
     0
  0
VERTEX
 10
-1.5723
 20
0.294546
  0
VERTEX
 10
-1.6224
 20
0.261539
  0
VERTEX
 10
-1.63891
 20
0.286591
  0
VERTEX
 10
-1.5888
 20
0.319598
  0
VERTEX
 10
-1.6053
 20
0.344651
  0
VERTEX
 10
-1.65541
 20
0.311644
  0
SEQEND
  0
POLYLINE
 70
     1
  0
VERTEX
 10
-1.82989
 20
0.0619849
  0
VERTEX
 10
-2.12055
 20
0.136263
  0
VERTEX
 10
-2.39738
 20
-0.0278786
  0
VERTEX
 10
-2.47166
 20
-0.318538
  0
SEQEND
  0
POLYLINE
 70
     0
  0
SEQEND
  0
POLYLINE
 70
     0
  0
VERTEX
 10
-2.12594
 20
-0.0525169
  0
VERTEX
 10
-2.15175
 20
-0.0678174
  0
VERTEX
 10
-2.18235
 20
-0.0162075
  0
VERTEX
 10
-2.15654
 20
-0.000907011
  0
VERTEX
 10
-2.20815
 20
-0.031508
  0
VERTEX
 10
-2.19795
 20
-0.0487113
  0
SEQEND
  0
POLYLINE
 70
     0
  0
VERTEX
 10
-2.20336
 20
-0.0984184
  0
VERTEX
 10
-2.25497
 20
-0.129019
  0
VERTEX
 10
-2.27027
 20
-0.103214
  0
VERTEX
 10
-2.24446
 20
-0.0879139
  0
VERTEX
 10
-2.27027
 20
-0.103214
  0
VERTEX
 10
-2.28557
 20
-0.0774095
  0
VERTEX
 10
-2.23396
 20
-0.0468085
  0
SEQEND
  0
POLYLINE
 70
     1
  0
VERTEX
 10
-2.47166
 20
-0.318538
  0
VERTEX
 10
-2.5562
 20
-0.60638
  0
VERTEX
 10
-2.39897
 20
-0.894362
  0
VERTEX
 10
-2.11113
 20
-0.978901
  0
SEQEND
  0
POLYLINE
 70
     0
  0
SEQEND
  0
POLYLINE
 70
     0
  0
VERTEX
 10
-2.36623
 20
-0.621214
  0
VERTEX
 10
-2.35185
 20
-0.647546
  0
VERTEX
 10
-2.40451
 20
-0.676297
  0
VERTEX
 10
-2.41889
 20
-0.649966
  0
VERTEX
 10
-2.39014
 20
-0.702628
  0
VERTEX
 10
-2.37258
 20
-0.693044
  0
SEQEND
  0
POLYLINE
 70
     0
  0
VERTEX
 10
-2.3231
 20
-0.700208
  0
VERTEX
 10
-2.30872
 20
-0.72654
  0
VERTEX
 10
-2.36139
 20
-0.755291
  0
VERTEX
 10
-2.37576
 20
-0.72896
  0
VERTEX
 10
-2.34701
 20
-0.781622
  0
VERTEX
 10
-2.32946
 20
-0.772038
  0
SEQEND
  0
POLYLINE
 70
     1
  0
VERTEX
 10
-1.48288
 20
-1.47688
  0
VERTEX
 10
-1.19679
 20
-1.56716
  0
VERTEX
 10
-1.02744
 20
-1.47905
  0
VERTEX
 10
-0.937158
 20
-1.19296
  0
SEQEND
  0
POLYLINE
 70
     0
  0
SEQEND
  0
POLYLINE
 70
     0
  0
VERTEX
 10
-1.23902
 20
-1.40919
  0
VERTEX
 10
-1.2124
 20
-1.39534
  0
VERTEX
 10
-1.18471
 20
-1.44857
  0
VERTEX
 10
-1.21132
 20
-1.46241
  0
VERTEX
 10
-1.1581
 20
-1.43472
  0
VERTEX
 10
-1.16733
 20
-1.41698
  0
SEQEND
  0
POLYLINE
 70
     0
  0
VERTEX
 10
-1.15918
 20
-1.36765
  0
VERTEX
 10
-1.14533
 20
-1.39426
  0
VERTEX
 10
-1.0921
 20
-1.36657
  0
VERTEX
 10
-1.09903
 20
-1.35326
  0
VERTEX
 10
-1.07826
 20
-1.39318
  0
SEQEND
  0
POLYLINE
 70
     1
  0
VERTEX
 10
-0.937158
 20
-1.19296
  0
VERTEX
 10
-0.63835
 20
-1.16623
  0
VERTEX
 10
-0.512896
 20
-1.01614
  0
VERTEX
 10
-0.53962
 20
-0.717328
  0
SEQEND
  0
POLYLINE
 70
     0
  0
SEQEND
  0
POLYLINE
 70
     0
  0
VERTEX
 10
-0.736585
 20
-1.03485
  0
VERTEX
 10
-0.717345
 20
-1.01183
  0
VERTEX
 10
-0.671308
 20
-1.05031
  0
VERTEX
 10
-0.690548
 20
-1.07333
  0
VERTEX
 10
-0.652069
 20
-1.02729
  0
VERTEX
 10
-0.667415
 20
-1.01446
  0
SEQEND
  0
POLYLINE
 70
     0
  0
VERTEX
 10
-0.640389
 20
-0.919756
  0
VERTEX
 10
-0.678867
 20
-0.965793
  0
VERTEX
 10
-0.655849
 20
-0.985032
  0
VERTEX
 10
-0.61737
 20
-0.938995
  0
VERTEX
 10
-0.594352
 20
-0.958234
  0
VERTEX
 10
-0.63283
 20
-1.00427
  0
SEQEND
  0
POLYLINE
 70
     1
  0
VERTEX
 10
0.790569
 20
5.21337
  0
VERTEX
 10
0.578437
 20
5.4255
  0
VERTEX
 10
0.212132
 20
5.4255
  0
VERTEX
 10
-1.18476e-16
 20
5.21337
  0
SEQEND
  0
POLYLINE
 70
     0
  0
SEQEND
  0
POLYLINE
 70
     0
  0
VERTEX
 10
0.455285
 20
5.26587
  0
VERTEX
 10
0.425285
 20
5.26587
  0
VERTEX
 10
0.425285
 20
5.32587
  0
VERTEX
 10
0.455285
 20
5.32587
  0
VERTEX
 10
0.395285
 20
5.32587
  0
VERTEX
 10
0.395285
 20
5.30587
  0
SEQEND
  0
POLYLINE
 70
     0
  0
VERTEX
 10
0.345285
 20
5.26587
  0
VERTEX
 10
0.365285
 20
5.26587
  0
VERTEX
 10
0.365285
 20
5.30587
  0
VERTEX
 10
0.305285
 20
5.30587
  0
VERTEX
 10
0.305285
 20
5.32587
  0
VERTEX
 10
0.365285
 20
5.32587
  0
VERTEX
 10
0.365285
 20
5.30587
  0
SEQEND
  0
POLYLINE
 70
     1
  0
VERTEX
 10
0.667592
 20
4.60581
  0
VERTEX
 10
0.917592
 20
4.77164
  0
VERTEX
 10
0.956401
 20
4.96337
  0
VERTEX
 10
0.790569
 20
5.21337
  0
SEQEND
  0
POLYLINE
 70
     0
  0
SEQEND
  0
POLYLINE
 70
     0
  0
VERTEX
 10
0.780537
 20
4.89918
  0
VERTEX
 10
0.768634
 20
4.84037
  0
VERTEX
 10
0.798038
 20
4.83442
  0
VERTEX
 10
0.809941
 20
4.89322
  0
VERTEX
 10
0.839345
 20
4.88727
  0
VERTEX
 10
0.827442
 20
4.82846
  0
SEQEND
  0
POLYLINE
 70
     1
  0
VERTEX
 10
0.0722994
 20
4.43293
  0
VERTEX
 10
0.335175
 20
4.28838
  0
VERTEX
 10
0.523037
 20
4.34293
  0
VERTEX
 10
0.667592
 20
4.60581
  0
SEQEND
  0
POLYLINE
 70
     0
  0
SEQEND
  0
POLYLINE
 70
     0
  0
VERTEX
 10
0.326968
 20
4.45222
  0
VERTEX
 10
0.355777
 20
4.46059
  0
VERTEX
 10
0.37251
 20
4.40297
  0
VERTEX
 10
0.343701
 20
4.3946
  0
VERTEX
 10
0.40132
 20
4.41133
  0
VERTEX
 10
0.395743
 20
4.43054
  0
SEQEND
  0
POLYLINE
 70
     0
  0
VERTEX
 10
0.471016
 20
4.49405
  0
VERTEX
 10
0.413397
 20
4.47732
  0
VERTEX
 10
0.421763
 20
4.44851
  0
VERTEX
 10
0.479383
 20
4.46524
  0
VERTEX
 10
0.487749
 20
4.43643
  0
VERTEX
 10
0.43013
 20
4.4197
  0
SEQEND
  0
POLYLINE
 70
     1
  0
VERTEX
 10
0
 20
5.21337
  0
VERTEX
 10
-0.19166
 20
4.98258
  0
VERTEX
 10
-0.158496
 20
4.62459
  0
VERTEX
 10
0.0722994
 20
4.43293
  0
SEQEND
  0
POLYLINE
 70
     0
  0
SEQEND
  0
POLYLINE
 70
     0
  0
VERTEX
 10
-0.0216611
 20
4.87805
  0
VERTEX
 10
-0.0188938
 20
4.84818
  0
VERTEX
 10
-0.078638
 20
4.84265
  0
VERTEX
 10
-0.0814053
 20
4.87252
  0
VERTEX
 10
-0.0758707
 20
4.81277
  0
VERTEX
 10
-0.0559559
 20
4.81462
  0
SEQEND
  0
POLYLINE
 70
     0
  0
VERTEX
 10
-0.0332739
 20
4.78659
  0
VERTEX
 10
-0.0133592
 20
4.78844
  0
VERTEX
 10
-0.00782451
 20
4.72869
  0
VERTEX
 10
-0.0277392
 20
4.72685
  0
VERTEX
 10
-0.0541527
 20
4.75139
  0
VERTEX
 10
-0.0740675
 20
4.74955
  0
SEQEND
  0
POLYLINE
 70
     1
  0
VERTEX
 10
0.381752
 20
-2.38167
  0
VERTEX
 10
0.667432
 20
-2.47325
  0
VERTEX
 10
0.841381
 20
-2.38375
  0
VERTEX
 10
0.932963
 20
-2.09807
  0
SEQEND
  0
POLYLINE
 70
     0
  0
SEQEND
  0
POLYLINE
 70
     0
  0
VERTEX
 10
0.628023
 20
-2.314
  0
VERTEX
 10
0.6547
 20
-2.30028
  0
VERTEX
 10
0.682149
 20
-2.35363
  0
VERTEX
 10
0.655473
 20
-2.36736
  0
VERTEX
 10
0.708826
 20
-2.33991
  0
VERTEX
 10
0.699676
 20
-2.32212
  0
SEQEND
  0
POLYLINE
 70
     0
  0
VERTEX
 10
0.735502
 20
-2.32618
  0
VERTEX
 10
0.788855
 20
-2.29873
  0
VERTEX
 10
0.761405
 20
-2.24538
  0
VERTEX
 10
0.708052
 20
-2.27283
  0
VERTEX
 10
0.735502
 20
-2.32618
  0
SEQEND
  0
POLYLINE
 70
     1
  0
VERTEX
 10
-0.125169
 20
-2.02489
  0
VERTEX
 10
-0.0737884
 20
-2.32046
  0
VERTEX
 10
0.086185
 20
-2.43305
  0
VERTEX
 10
0.381752
 20
-2.38167
  0
SEQEND
  0
POLYLINE
 70
     0
  0
SEQEND
  0
POLYLINE
 70
     0
  0
VERTEX
 10
0.0490091
 20
-2.21168
  0
VERTEX
 10
0.073542
 20
-2.22895
  0
VERTEX
 10
0.0390088
 20
-2.27801
  0
VERTEX
 10
0.0144759
 20
-2.26074
  0
VERTEX
 10
0.0635418
 20
-2.29528
  0
VERTEX
 10
0.0750528
 20
-2.27892
  0
SEQEND
  0
POLYLINE
 70
     0
  0
VERTEX
 10
0.122608
 20
-2.26348
  0
VERTEX
 10
0.105341
 20
-2.28801
  0
VERTEX
 10
0.154407
 20
-2.32254
  0
VERTEX
 10
0.16304
 20
-2.31028
  0
VERTEX
 10
0.137141
 20
-2.34708
  0
SEQEND
  0
POLYLINE
 70
     1
  0
VERTEX
 10
0.439009
 20
-1.48082
  0
VERTEX
 10
0.139059
 20
-1.47537
  0
VERTEX
 10
-0.119728
 20
-1.72494
  0
VERTEX
 10
-0.125169
 20
-2.02489
  0
SEQEND
  0
POLYLINE
 70
     0
  0
SEQEND
  0
POLYLINE
 70
     0
  0
VERTEX
 10
0.163665
 20
-1.67341
  0
VERTEX
 10
0.142071
 20
-1.69424
  0
VERTEX
 10
0.100421
 20
-1.65105
  0
VERTEX
 10
0.122015
 20
-1.63022
  0
VERTEX
 10
0.0788263
 20
-1.67187
  0
VERTEX
 10
0.0927096
 20
-1.68627
  0
SEQEND
  0
POLYLINE
 70
     0
  0
VERTEX
 10
0.0849985
 20
-1.72149
  0
VERTEX
 10
0.0988818
 20
-1.73589
  0
VERTEX
 10
0.0556929
 20
-1.77754
  0
VERTEX
 10
0.0418096
 20
-1.76314
  0
VERTEX
 10
0.0444684
 20
-1.72718
  0
VERTEX
 10
0.0305851
 20
-1.71279
  0
SEQEND
  0
POLYLINE
 70
     1
  0
VERTEX
 10
1.0992
 20
-1.04591
  0
VERTEX
 10
1.37522
 20
-1.16345
  0
VERTEX
 10
1.44828
 20
-1.34491
  0
VERTEX
 10
1.33074
 20
-1.62093
  0
SEQEND
  0
POLYLINE
 70
     0
  0
SEQEND
  0
POLYLINE
 70
     0
  0
VERTEX
 10
1.28608
 20
-1.36946
  0
VERTEX
 10
1.27488
 20
-1.34164
  0
VERTEX
 10
1.33053
 20
-1.31922
  0
VERTEX
 10
1.34174
 20
-1.34705
  0
VERTEX
 10
1.31933
 20
-1.2914
  0
VERTEX
 10
1.30078
 20
-1.29887
  0
SEQEND
  0
POLYLINE
 70
     0
  0
VERTEX
 10
1.26349
 20
-1.23303
  0
VERTEX
 10
1.23566
 20
-1.24424
  0
VERTEX
 10
1.24686
 20
-1.27206
  0
VERTEX
 10
1.27469
 20
-1.26086
  0
VERTEX
 10
1.28029
 20
-1.27477
  0
VERTEX
 10
1.30812
 20
-1.26357
  0
VERTEX
 10
1.28571
 20
-1.20791
  0
VERTEX
 10
1.25788
 20
-1.21912
  0
VERTEX
 10
1.27469
 20
-1.26086
  0
SEQEND
  0
POLYLINE
 70
     1
  0
VERTEX
 10
0.439009
 20
-1.48082
  0
VERTEX
 10
0.152681
 20
-1.39128
  0
VERTEX
 10
-0.0172321
 20
-1.06677
  0
VERTEX
 10
0.0722994
 20
-0.780441
  0
SEQEND
  0
POLYLINE
 70
     0
  0
SEQEND
  0
POLYLINE
 70
     0
  0
VERTEX
 10
0.181313
 20
-1.10183
  0
VERTEX
 10
0.195228
 20
-1.1284
  0
VERTEX
 10
0.142074
 20
-1.15623
  0
VERTEX
 10
0.128158
 20
-1.12966
  0
VERTEX
 10
0.155989
 20
-1.18281
  0
VERTEX
 10
0.173708
 20
-1.17353
  0
SEQEND
  0
POLYLINE
 70
     0
  0
VERTEX
 10
0.232337
 20
-1.19928
  0
VERTEX
 10
0.22306
 20
-1.18156
  0
VERTEX
 10
0.187623
 20
-1.20011
  0
VERTEX
 10
0.215455
 20
-1.25327
  0
VERTEX
 10
0.197736
 20
-1.26254
  0
VERTEX
 10
0.169905
 20
-1.20939
  0
VERTEX
 10
0.187623
 20
-1.20011
  0
SEQEND
  0
POLYLINE
 70
     1
  0
VERTEX
 10
2.3642
 20
0.149304
  0
VERTEX
 10
2.17857
 20
-0.0863723
  0
VERTEX
 10
1.81483
 20
-0.129587
  0
VERTEX
 10
1.57915
 20
0.0560382
  0
SEQEND
  0
POLYLINE
 70
     0
  0
SEQEND
  0
POLYLINE
 70
     0
  0
VERTEX
 10
1.91829
 20
0.0434595
  0
VERTEX
 10
1.94808
 20
0.0469987
  0
VERTEX
 10
1.95516
 20
-0.0125823
  0
VERTEX
 10
1.92537
 20
-0.0161215
  0
VERTEX
 10
1.98495
 20
-0.00904315
  0
VERTEX
 10
1.98259
 20
0.0108172
  0
SEQEND
  0
POLYLINE
 70
     0
  0
VERTEX
 10
2.0696
 20
0.0412951
  0
VERTEX
 10
2.06724
 20
0.0611554
  0
VERTEX
 10
2.00766
 20
0.0540771
  0
VERTEX
 10
2.01002
 20
0.0342167
  0
VERTEX
 10
2.0696
 20
0.0412951
  0
VERTEX
 10
2.07432
 20
0.00157444
  0
VERTEX
 10
2.05446
 20
-0.000785026
  0
SEQEND
  0
POLYLINE
 70
     1
  0
VERTEX
 10
2.16933
 20
-0.744789
  0
VERTEX
 10
2.17028
 20
-1.04479
  0
VERTEX
 10
2.0324
 20
-1.18355
  0
VERTEX
 10
1.7324
 20
-1.1845
  0
SEQEND
  0
POLYLINE
 70
     0
  0
SEQEND
  0
POLYLINE
 70
     0
  0
VERTEX
 10
1.96
 20
-1.05831
  0
VERTEX
 10
1.94581
 20
-1.04421
  0
VERTEX
 10
1.9881
 20
-1.00165
  0
VERTEX
 10
2.00229
 20
-1.01575
  0
VERTEX
 10
2.0004
 20
-1.05175
  0
VERTEX
 10
2.01459
 20
-1.06585
  0
SEQEND
  0
POLYLINE
 70
     1
  0
VERTEX
 10
1.51891
 20
-0.307442
  0
VERTEX
 10
1.81331
 20
-0.249774
  0
VERTEX
 10
2.11166
 20
-0.450383
  0
VERTEX
 10
2.16933
 20
-0.744789
  0
SEQEND
  0
POLYLINE
 70
     0
  0
SEQEND
  0
POLYLINE
 70
     0
  0
VERTEX
 10
1.9232
 20
-0.516028
  0
VERTEX
 10
1.89831
 20
-0.499288
  0
VERTEX
 10
1.93179
 20
-0.449498
  0
VERTEX
 10
1.95668
 20
-0.466238
  0
VERTEX
 10
1.90689
 20
-0.432758
  0
VERTEX
 10
1.89573
 20
-0.449355
  0
SEQEND
  0
POLYLINE
 70
     0
  0
VERTEX
 10
1.80989
 20
-0.415732
  0
VERTEX
 10
1.79873
 20
-0.432329
  0
VERTEX
 10
1.84852
 20
-0.465809
  0
VERTEX
 10
1.85968
 20
-0.449212
  0
VERTEX
 10
1.80989
 20
-0.415732
  0
VERTEX
 10
1.83221
 20
-0.382538
  0
VERTEX
 10
1.8488
 20
-0.393698
  0
SEQEND
  0
POLYLINE
 70
     1
  0
VERTEX
 10
1.7324
 20
-1.1845
  0
VERTEX
 10
1.46707
 20
-1.3245
  0
VERTEX
 10
1.28017
 20
-1.26672
  0
VERTEX
 10
1.14017
 20
-1.00139
  0
SEQEND
  0
POLYLINE
 70
     0
  0
SEQEND
  0
POLYLINE
 70
     0
  0
VERTEX
 10
1.36345
 20
-1.12538
  0
VERTEX
 10
1.39212
 20
-1.13424
  0
VERTEX
 10
1.37439
 20
-1.19156
  0
VERTEX
 10
1.34573
 20
-1.1827
  0
VERTEX
 10
1.40305
 20
-1.20043
  0
VERTEX
 10
1.40896
 20
-1.18132
  0
SEQEND
  0
POLYLINE
 70
     0
  0
VERTEX
 10
1.48357
 20
-1.19392
  0
VERTEX
 10
1.49243
 20
-1.16526
  0
VERTEX
 10
1.46377
 20
-1.1564
  0
VERTEX
 10
1.45491
 20
-1.18506
  0
VERTEX
 10
1.44058
 20
-1.18063
  0
VERTEX
 10
1.43171
 20
-1.20929
  0
VERTEX
 10
1.48904
 20
-1.22701
  0
VERTEX
 10
1.4979
 20
-1.19835
  0
VERTEX
 10
1.45491
 20
-1.18506
  0
SEQEND
  0
POLYLINE
 70
     1
  0
VERTEX
 10
0.728128
 20
1.88474
  0
VERTEX
 10
0.911944
 20
2.02538
  0
VERTEX
 10
0.911944
 20
2.02538
  0
VERTEX
 10
0.771303
 20
2.2092
  0
SEQEND
  0
POLYLINE
 70
     0
  0
SEQEND
  0
POLYLINE
 70
     0
  0
VERTEX
 10
0.78206
 20
1.98297
  0
VERTEX
 10
0.787033
 20
2.02035
  0
VERTEX
 10
0.80572
 20
2.01786
  0
VERTEX
 10
0.800747
 20
1.98049
  0
VERTEX
 10
0.819434
 20
1.978
  0
VERTEX
 10
0.824407
 20
2.01537
  0
SEQEND
  0
POLYLINE
 70
     0
  0
VERTEX
 10
0.826894
 20
2.03406
  0
VERTEX
 10
0.831867
 20
2.07143
  0
VERTEX
 10
0.794493
 20
2.07641
  0
VERTEX
 10
0.78952
 20
2.03903
  0
VERTEX
 10
0.826894
 20
2.03406
  0
SEQEND
  0
POLYLINE
 70
     1
  0
VERTEX
 10
0.771303
 20
2.2092
  0
VERTEX
 10
0.764568
 20
2.44111
  0
VERTEX
 10
0.764568
 20
2.44111
  0
VERTEX
 10
0.532652
 20
2.43438
  0
SEQEND
  0
POLYLINE
 70
     0
  0
SEQEND
  0
POLYLINE
 70
     0
  0
VERTEX
 10
0.722983
 20
2.31061
  0
VERTEX
 10
0.695493
 20
2.33655
  0
VERTEX
 10
0.708462
 20
2.3503
  0
VERTEX
 10
0.735952
 20
2.32436
  0
VERTEX
 10
0.748921
 20
2.3381
  0
VERTEX
 10
0.721431
 20
2.36404
  0
SEQEND
  0
POLYLINE
 70
     0
  0
VERTEX
 10
0.681748
 20
2.34952
  0
VERTEX
 10
0.668003
 20
2.36249
  0
VERTEX
 10
0.693942
 20
2.38998
  0
VERTEX
 10
0.707687
 20
2.37701
  0
VERTEX
 10
0.680197
 20
2.40295
  0
VERTEX
 10
0.671551
 20
2.39378
  0
SEQEND
  0
POLYLINE
 70
     1
  0
VERTEX
 10
-0.0215239
 20
2.25216
  0
VERTEX
 10
-0.0233801
 20
2.48417
  0
VERTEX
 10
-0.0233801
 20
2.48417
  0
VERTEX
 10
0.208626
 20
2.48603
  0
SEQEND
  0
POLYLINE
 70
     0
  0
SEQEND
  0
POLYLINE
 70
     0
  0
VERTEX
 10
0.106217
 20
2.43985
  0
VERTEX
 10
0.0797059
 20
2.41291
  0
VERTEX
 10
0.0662368
 20
2.42617
  0
VERTEX
 10
0.0927475
 20
2.45311
  0
VERTEX
 10
0.0792783
 20
2.46636
  0
VERTEX
 10
0.0527676
 20
2.43942
  0
SEQEND
  0
POLYLINE
 70
     0
  0
VERTEX
 10
0.0664506
 20
2.39944
  0
VERTEX
 10
0.0399399
 20
2.3725
  0
VERTEX
 10
0.0264707
 20
2.38576
  0
VERTEX
 10
0.0529814
 20
2.4127
  0
VERTEX
 10
0.0395123
 20
2.42595
  0
VERTEX
 10
0.0130016
 20
2.39902
  0
SEQEND
  0
POLYLINE
 70
     1
  0
VERTEX
 10
0.208626
 20
2.48603
  0
VERTEX
 10
0.396464
 20
2.62221
  0
VERTEX
 10
0.396464
 20
2.62221
  0
VERTEX
 10
0.532652
 20
2.43438
  0
SEQEND
  0
POLYLINE
 70
     0
  0
SEQEND
  0
POLYLINE
 70
     0
  0
VERTEX
 10
0.435605
 20
2.49096
  0
VERTEX
 10
0.398281
 20
2.49691
  0
VERTEX
 10
0.401255
 20
2.51557
  0
VERTEX
 10
0.438579
 20
2.50962
  0
VERTEX
 10
0.441554
 20
2.52829
  0
VERTEX
 10
0.40423
 20
2.53423
  0
SEQEND
  0
POLYLINE
 70
     0
  0
VERTEX
 10
0.379619
 20
2.49989
  0
VERTEX
 10
0.342295
 20
2.50583
  0
VERTEX
 10
0.345269
 20
2.5245
  0
VERTEX
 10
0.363931
 20
2.52152
  0
VERTEX
 10
0.345269
 20
2.5245
  0
VERTEX
 10
0.348244
 20
2.54316
  0
VERTEX
 10
0.385568
 20
2.53721
  0
SEQEND
  0
POLYLINE
 70
     1
  0
VERTEX
 10
-0.0669978
 20
1.88765
  0
VERTEX
 10
-0.0484178
 20
1.65638
  0
VERTEX
 10
-0.0484178
 20
1.65638
  0
VERTEX
 10
0.18285
 20
1.67496
  0
SEQEND
  0
POLYLINE
 70
     0
  0
SEQEND
  0
POLYLINE
 70
     0
  0
VERTEX
 10
-0.0135578
 20
1.78884
  0
VERTEX
 10
0.0152218
 20
1.76434
  0
VERTEX
 10
0.00297221
 20
1.74995
  0
VERTEX
 10
-0.0258074
 20
1.77445
  0
VERTEX
 10
-0.038057
 20
1.76006
  0
VERTEX
 10
-0.0092774
 20
1.73556
  0
SEQEND
  0
POLYLINE
 70
     0
  0
VERTEX
 10
0.0296116
 20
1.75209
  0
VERTEX
 10
0.017362
 20
1.7377
  0
VERTEX
 10
0.0461416
 20
1.7132
  0
VERTEX
 10
0.0522664
 20
1.72039
  0
VERTEX
 10
0.033892
 20
1.69881
  0
SEQEND
  0
POLYLINE
 70
     1
  0
VERTEX
 10
-0.0388465
 20
2.21456
  0
VERTEX
 10
-0.216376
 20
2.06518
  0
VERTEX
 10
-0.216376
 20
2.06518
  0
VERTEX
 10
-0.0669978
 20
1.88765
  0
SEQEND
  0
POLYLINE
 70
     0
  0
SEQEND
  0
POLYLINE
 70
     0
  0
VERTEX
 10
-0.0882859
 20
2.11368
  0
VERTEX
 10
-0.0915287
 20
2.07603
  0
VERTEX
 10
-0.110357
 20
2.07765
  0
VERTEX
 10
-0.107114
 20
2.1153
  0
VERTEX
 10
-0.125942
 20
2.11692
  0
VERTEX
 10
-0.129185
 20
2.07927
  0
SEQEND
  0
POLYLINE
 70
     0
  0
VERTEX
 10
-0.0963927
 20
2.01954
  0
VERTEX
 10
-0.09315
 20
2.0572
  0
VERTEX
 10
-0.111978
 20
2.05882
  0
VERTEX
 10
-0.115221
 20
2.02116
  0
VERTEX
 10
-0.134049
 20
2.02278
  0
VERTEX
 10
-0.130806
 20
2.06044
  0
SEQEND
  0
POLYLINE
 70
     1
  0
VERTEX
 10
0.728128
 20
1.88474
  0
VERTEX
 10
0.741128
 20
1.65309
  0
VERTEX
 10
0.741128
 20
1.65309
  0
VERTEX
 10
0.509479
 20
1.64009
  0
SEQEND
  0
POLYLINE
 70
     0
  0
SEQEND
  0
POLYLINE
 70
     0
  0
VERTEX
 10
0.609552
 20
1.69113
  0
VERTEX
 10
0.634738
 20
1.71931
  0
VERTEX
 10
0.648828
 20
1.70672
  0
VERTEX
 10
0.623642
 20
1.67854
  0
VERTEX
 10
0.637733
 20
1.66595
  0
VERTEX
 10
0.662919
 20
1.69413
  0
SEQEND
  0
POLYLINE
 70
     0
  0
VERTEX
 10
0.655726
 20
1.7428
  0
VERTEX
 10
0.647331
 20
1.7334
  0
VERTEX
 10
0.666118
 20
1.71661
  0
VERTEX
 10
0.691304
 20
1.74479
  0
VERTEX
 10
0.700698
 20
1.7364
  0
VERTEX
 10
0.675512
 20
1.70822
  0
VERTEX
 10
0.666118
 20
1.71661
  0
SEQEND
  0
POLYLINE
 70
     1
  0
VERTEX
 10
0.954698
 20
1.65589
  0
VERTEX
 10
0.824026
 20
1.57822
  0
VERTEX
 10
0.824026
 20
1.57822
  0
VERTEX
 10
0.901695
 20
1.44755
  0
SEQEND
  0
POLYLINE
 70
     0
  0
SEQEND
  0
POLYLINE
 70
     0
  0
VERTEX
 10
0.911997
 20
1.59594
  0
VERTEX
 10
0.905891
 20
1.57194
  0
VERTEX
 10
0.893892
 20
1.57499
  0
VERTEX
 10
0.899998
 20
1.59899
  0
VERTEX
 10
0.887998
 20
1.60204
  0
VERTEX
 10
0.881893
 20
1.57805
  0
SEQEND
  0
POLYLINE
 70
     0
  0
VERTEX
 10
0.894839
 20
1.56198
  0
VERTEX
 10
0.902839
 20
1.55994
  0
VERTEX
 10
0.896734
 20
1.53594
  0
VERTEX
 10
0.888734
 20
1.53798
  0
VERTEX
 10
0.881854
 20
1.55117
  0
VERTEX
 10
0.873855
 20
1.55321
  0
SEQEND
  0
POLYLINE
 70
     1
  0
VERTEX
 10
1.27746
 20
1.71494
  0
VERTEX
 10
1.08655
 20
1.84679
  0
VERTEX
 10
1.08655
 20
1.84679
  0
VERTEX
 10
0.954698
 20
1.65589
  0
SEQEND
  0
POLYLINE
 70
     0
  0
SEQEND
  0
POLYLINE
 70
     0
  0
VERTEX
 10
1.16712
 20
1.73603
  0
VERTEX
 10
1.12994
 20
1.72923
  0
VERTEX
 10
1.12654
 20
1.74782
  0
VERTEX
 10
1.16371
 20
1.75462
  0
VERTEX
 10
1.16031
 20
1.77321
  0
VERTEX
 10
1.12314
 20
1.7664
  0
SEQEND
  0
POLYLINE
 70
     0
  0
VERTEX
 10
1.09896
 20
1.72356
  0
VERTEX
 10
1.11135
 20
1.72583
  0
VERTEX
 10
1.10681
 20
1.75061
  0
VERTEX
 10
1.06964
 20
1.74381
  0
VERTEX
 10
1.06737
 20
1.7562
  0
VERTEX
 10
1.10455
 20
1.763
  0
VERTEX
 10
1.10681
 20
1.75061
  0
SEQEND
  0
POLYLINE
 70
     1
  0
VERTEX
 10
1.33541
 20
1.47837
  0
VERTEX
 10
1.42472
 20
1.62563
  0
VERTEX
 10
1.42472
 20
1.62563
  0
VERTEX
 10
1.27746
 20
1.71494
  0
SEQEND
  0
POLYLINE
 70
     0
  0
SEQEND
  0
POLYLINE
 70
     0
  0
VERTEX
 10
1.34619
 20
1.56106
  0
VERTEX
 10
1.33951
 20
1.58831
  0
VERTEX
 10
1.35314
 20
1.59165
  0
VERTEX
 10
1.35981
 20
1.5644
  0
VERTEX
 10
1.37344
 20
1.56774
  0
VERTEX
 10
1.36676
 20
1.59499
  0
SEQEND
  0
POLYLINE
 70
     0
  0
VERTEX
 10
1.34479
 20
1.62571
  0
VERTEX
 10
1.33117
 20
1.62237
  0
VERTEX
 10
1.3345
 20
1.60875
  0
VERTEX
 10
1.34813
 20
1.61209
  0
VERTEX
 10
1.3498
 20
1.60528
  0
VERTEX
 10
1.36342
 20
1.60861
  0
VERTEX
 10
1.35675
 20
1.63586
  0
VERTEX
 10
1.34312
 20
1.63253
  0
VERTEX
 10
1.34813
 20
1.61209
  0
SEQEND
  0
POLYLINE
 70
     1
  0
VERTEX
 10
1.33541
 20
1.47837
  0
VERTEX
 10
1.45746
 20
1.38917
  0
VERTEX
 10
1.45746
 20
1.38917
  0
VERTEX
 10
1.36826
 20
1.26713
  0
SEQEND
  0
POLYLINE
 70
     0
  0
SEQEND
  0
POLYLINE
 70
     0
  0
VERTEX
 10
1.38391
 20
1.33863
  0
VERTEX
 10
1.38013
 20
1.36296
  0
VERTEX
 10
1.3923
 20
1.36485
  0
VERTEX
 10
1.39608
 20
1.34052
  0
VERTEX
 10
1.40825
 20
1.34241
  0
VERTEX
 10
1.40446
 20
1.36674
  0
SEQEND
  0
POLYLINE
 70
     0
  0
VERTEX
 10
1.38257
 20
1.40072
  0
VERTEX
 10
1.37446
 20
1.39946
  0
VERTEX
 10
1.37824
 20
1.37512
  0
VERTEX
 10
1.38635
 20
1.37639
  0
VERTEX
 10
1.38257
 20
1.40072
  0
VERTEX
 10
1.39879
 20
1.40324
  0
VERTEX
 10
1.40005
 20
1.39513
  0
SEQEND
  0
POLYLINE
 70
     1
  0
VERTEX
 10
0.890182
 20
1.23315
  0
VERTEX
 10
0.78874
 20
1.34611
  0
VERTEX
 10
0.78874
 20
1.34611
  0
VERTEX
 10
0.901695
 20
1.44755
  0
SEQEND
  0
POLYLINE
 70
     0
  0
SEQEND
  0
POLYLINE
 70
     0
  0
VERTEX
 10
0.871489
 20
1.38053
  0
VERTEX
 10
0.870163
 20
1.35584
  0
VERTEX
 10
0.857815
 20
1.3565
  0
VERTEX
 10
0.858478
 20
1.36885
  0
VERTEX
 10
0.857815
 20
1.3565
  0
VERTEX
 10
0.845467
 20
1.35716
  0
VERTEX
 10
0.846793
 20
1.38186
  0
SEQEND
  0
POLYLINE
 70
     0
  0
VERTEX
 10
0.844804
 20
1.34481
  0
VERTEX
 10
0.843478
 20
1.32012
  0
VERTEX
 10
0.868174
 20
1.31879
  0
VERTEX
 10
0.8695
 20
1.34349
  0
VERTEX
 10
0.844804
 20
1.34481
  0
SEQEND
  0
POLYLINE
 70
     1
  0
VERTEX
 10
2.03445
 20
1.34172
  0
VERTEX
 10
2.11284
 20
1.47174
  0
VERTEX
 10
2.11284
 20
1.47174
  0
VERTEX
 10
1.98282
 20
1.55013
  0
SEQEND
  0
POLYLINE
 70
     0
  0
SEQEND
  0
POLYLINE
 70
     0
  0
VERTEX
 10
2.04376
 20
1.41464
  0
VERTEX
 10
2.03781
 20
1.43864
  0
VERTEX
 10
2.04982
 20
1.44162
  0
VERTEX
 10
2.05279
 20
1.42961
  0
VERTEX
 10
2.04982
 20
1.44162
  0
VERTEX
 10
2.06182
 20
1.44459
  0
VERTEX
 10
2.06777
 20
1.42058
  0
SEQEND
  0
POLYLINE
 70
     0
  0
VERTEX
 10
2.03484
 20
1.45065
  0
VERTEX
 10
2.03187
 20
1.46265
  0
VERTEX
 10
2.05587
 20
1.4686
  0
VERTEX
 10
2.05884
 20
1.45659
  0
VERTEX
 10
2.0529
 20
1.4806
  0
VERTEX
 10
2.0449
 20
1.47862
  0
SEQEND
  0
POLYLINE
 70
     1
  0
VERTEX
 10
1.55105
 20
1.49883
  0
VERTEX
 10
1.44795
 20
1.38827
  0
VERTEX
 10
1.44795
 20
1.38827
  0
VERTEX
 10
1.55852
 20
1.28518
  0
SEQEND
  0
POLYLINE
 70
     0
  0
SEQEND
  0
POLYLINE
 70
     0
  0
VERTEX
 10
1.52699
 20
1.4297
  0
VERTEX
 10
1.52785
 20
1.40509
  0
VERTEX
 10
1.51555
 20
1.40466
  0
VERTEX
 10
1.51469
 20
1.42927
  0
VERTEX
 10
1.50238
 20
1.42884
  0
VERTEX
 10
1.50324
 20
1.40423
  0
SEQEND
  0
POLYLINE
 70
     0
  0
VERTEX
 10
1.52094
 20
1.36789
  0
VERTEX
 10
1.52914
 20
1.36817
  0
VERTEX
 10
1.52828
 20
1.39279
  0
VERTEX
 10
1.52008
 20
1.3925
  0
VERTEX
 10
1.52094
 20
1.36789
  0
VERTEX
 10
1.50453
 20
1.36731
  0
VERTEX
 10
1.50425
 20
1.37552
  0
SEQEND
  0
POLYLINE
 70
     1
  0
VERTEX
 10
1.56348
 20
1.74208
  0
VERTEX
 10
1.72618
 20
1.90748
  0
VERTEX
 10
1.72618
 20
1.90748
  0
VERTEX
 10
1.89158
 20
1.74478
  0
SEQEND
  0
POLYLINE
 70
     0
  0
SEQEND
  0
POLYLINE
 70
     0
  0
VERTEX
 10
1.78651
 20
1.78452
  0
VERTEX
 10
1.74871
 20
1.78421
  0
VERTEX
 10
1.74856
 20
1.8031
  0
VERTEX
 10
1.78635
 20
1.80342
  0
VERTEX
 10
1.7862
 20
1.82231
  0
VERTEX
 10
1.7484
 20
1.822
  0
SEQEND
  0
POLYLINE
 70
     0
  0
VERTEX
 10
1.72951
 20
1.82185
  0
VERTEX
 10
1.69171
 20
1.82153
  0
VERTEX
 10
1.69202
 20
1.78374
  0
VERTEX
 10
1.72982
 20
1.78405
  0
VERTEX
 10
1.72951
 20
1.82185
  0
SEQEND
  0
POLYLINE
 70
     1
  0
VERTEX
 10
1.55105
 20
1.49883
  0
VERTEX
 10
1.43564
 20
1.62667
  0
VERTEX
 10
1.43564
 20
1.62667
  0
VERTEX
 10
1.56348
 20
1.74208
  0
SEQEND
  0
POLYLINE
 70
     0
  0
SEQEND
  0
POLYLINE
 70
     0
  0
VERTEX
 10
1.52941
 20
1.66596
  0
VERTEX
 10
1.52798
 20
1.63794
  0
VERTEX
 10
1.51397
 20
1.63866
  0
VERTEX
 10
1.5154
 20
1.66668
  0
VERTEX
 10
1.50139
 20
1.6674
  0
VERTEX
 10
1.49996
 20
1.63938
  0
SEQEND
  0
POLYLINE
 70
     0
  0
VERTEX
 10
1.51218
 20
1.60364
  0
VERTEX
 10
1.52619
 20
1.60292
  0
VERTEX
 10
1.5269
 20
1.61693
  0
VERTEX
 10
1.51289
 20
1.61765
  0
VERTEX
 10
1.51325
 20
1.62465
  0
VERTEX
 10
1.49924
 20
1.62537
  0
VERTEX
 10
1.49781
 20
1.59735
  0
VERTEX
 10
1.51182
 20
1.59663
  0
VERTEX
 10
1.51289
 20
1.61765
  0
SEQEND
  0
POLYLINE
 70
     1
  0
VERTEX
 10
1.89158
 20
1.74478
  0
VERTEX
 10
2.03453
 20
1.69307
  0
VERTEX
 10
2.03453
 20
1.69307
  0
VERTEX
 10
1.98282
 20
1.55013
  0
SEQEND
  0
POLYLINE
 70
     0
  0
SEQEND
  0
POLYLINE
 70
     0
  0
VERTEX
 10
1.97778
 20
1.62356
  0
VERTEX
 10
1.96727
 20
1.64598
  0
VERTEX
 10
1.97849
 20
1.65123
  0
VERTEX
 10
1.98374
 20
1.64002
  0
VERTEX
 10
1.97849
 20
1.65123
  0
VERTEX
 10
1.9897
 20
1.65649
  0
VERTEX
 10
2.00021
 20
1.63406
  0
SEQEND
  0
POLYLINE
 70
     0
  0
VERTEX
 10
1.96202
 20
1.65719
  0
VERTEX
 10
1.95151
 20
1.67961
  0
VERTEX
 10
1.96272
 20
1.68487
  0
VERTEX
 10
1.97323
 20
1.66244
  0
VERTEX
 10
1.98444
 20
1.6677
  0
VERTEX
 10
1.97393
 20
1.69012
  0
SEQEND
  0
POLYLINE
 70
     1
  0
VERTEX
 10
0.0177878
 20
0.751896
  0
VERTEX
 10
-0.254942
 20
0.626921
  0
VERTEX
 10
-0.556629
 20
0.739004
  0
VERTEX
 10
-0.681604
 20
1.01173
  0
SEQEND
  0
POLYLINE
 70
     0
  0
SEQEND
  0
POLYLINE
 70
     0
  0
VERTEX
 10
-0.406436
 20
0.853497
  0
VERTEX
 10
-0.378314
 20
0.843049
  0
VERTEX
 10
-0.399209
 20
0.786805
  0
VERTEX
 10
-0.427331
 20
0.797253
  0
VERTEX
 10
-0.371088
 20
0.776357
  0
VERTEX
 10
-0.364122
 20
0.795105
  0
SEQEND
  0
POLYLINE
 70
     1
  0
VERTEX
 10
0.603798
 20
1.22299
  0
VERTEX
 10
0.730934
 20
1.1759
  0
VERTEX
 10
0.730934
 20
1.1759
  0
VERTEX
 10
0.683843
 20
1.04876
  0
SEQEND
  0
POLYLINE
 70
     0
  0
SEQEND
  0
POLYLINE
 70
     0
  0
VERTEX
 10
0.67985
 20
1.11428
  0
VERTEX
 10
0.670629
 20
1.13435
  0
VERTEX
 10
0.680664
 20
1.13896
  0
VERTEX
 10
0.685274
 20
1.12893
  0
VERTEX
 10
0.680664
 20
1.13896
  0
VERTEX
 10
0.690698
 20
1.14357
  0
VERTEX
 10
0.699919
 20
1.1235
  0
SEQEND
  0
POLYLINE
 70
     0
  0
VERTEX
 10
0.666019
 20
1.14439
  0
VERTEX
 10
0.656799
 20
1.16446
  0
VERTEX
 10
0.666834
 20
1.16907
  0
VERTEX
 10
0.671444
 20
1.15903
  0
VERTEX
 10
0.666834
 20
1.16907
  0
VERTEX
 10
0.676868
 20
1.17368
  0
VERTEX
 10
0.686088
 20
1.15361
  0
SEQEND
  0
POLYLINE
 70
     1
  0
VERTEX
 10
6.7781
 20
-0.412731
  0
VERTEX
 10
7.0462
 20
-0.278115
  0
VERTEX
 10
7.04952
 20
-0.268102
  0
VERTEX
 10
6.91491
 20
4.94125e-17
  0
SEQEND
  0
POLYLINE
 70
     0
  0
SEQEND
  0
POLYLINE
 70
     0
  0
VERTEX
 10
6.87342
 20
-0.292021
  0
VERTEX
 10
6.88961
 20
-0.243191
  0
VERTEX
 10
6.91402
 20
-0.251283
  0
VERTEX
 10
6.90593
 20
-0.275698
  0
VERTEX
 10
6.91402
 20
-0.251283
  0
VERTEX
 10
6.93844
 20
-0.259376
  0
VERTEX
 10
6.92225
 20
-0.308206
  0
SEQEND
  0
POLYLINE
 70
     0
  0
VERTEX
 10
6.8977
 20
-0.218776
  0
VERTEX
 10
6.92211
 20
-0.226868
  0
VERTEX
 10
6.9383
 20
-0.178039
  0
VERTEX
 10
6.92609
 20
-0.173992
  0
VERTEX
 10
6.96271
 20
-0.186131
  0
SEQEND
  0
POLYLINE
 70
     1
  0
VERTEX
 10
6.56014
 20
-0.294676
  0
VERTEX
 10
6.61009
 20
-0.462686
  0
VERTEX
 10
6.61009
 20
-0.462686
  0
VERTEX
 10
6.7781
 20
-0.412731
  0
SEQEND
  0
POLYLINE
 70
     0
  0
SEQEND
  0
POLYLINE
 70
     0
  0
VERTEX
 10
6.61511
 20
-0.359335
  0
VERTEX
 10
6.64022
 20
-0.372933
  0
VERTEX
 10
6.63342
 20
-0.385487
  0
VERTEX
 10
6.62086
 20
-0.378687
  0
VERTEX
 10
6.63342
 20
-0.385487
  0
VERTEX
 10
6.62662
 20
-0.39804
  0
VERTEX
 10
6.60151
 20
-0.384442
  0
SEQEND
  0
POLYLINE
 70
     0
  0
VERTEX
 10
6.67788
 20
-0.393331
  0
VERTEX
 10
6.65277
 20
-0.379732
  0
VERTEX
 10
6.64597
 20
-0.392286
  0
VERTEX
 10
6.67108
 20
-0.405884
  0
VERTEX
 10
6.66428
 20
-0.418438
  0
VERTEX
 10
6.63917
 20
-0.404839
  0
SEQEND
  0
POLYLINE
 70
     1
  0
VERTEX
 10
6.69993
 20
0
  0
VERTEX
 10
6.4827
 20
-0.0774423
  0
VERTEX
 10
6.4827
 20
-0.0774423
  0
VERTEX
 10
6.56014
 20
-0.294676
  0
SEQEND
  0
POLYLINE
 70
     0
  0
SEQEND
  0
POLYLINE
 70
     0
  0
VERTEX
 10
6.61884
 20
-0.076771
  0
VERTEX
 10
6.60274
 20
-0.110714
  0
VERTEX
 10
6.58577
 20
-0.102663
  0
VERTEX
 10
6.60187
 20
-0.0687198
  0
VERTEX
 10
6.5849
 20
-0.0606686
  0
VERTEX
 10
6.56879
 20
-0.094612
  0
SEQEND
  0
POLYLINE
 70
     0
  0
VERTEX
 10
6.59469
 20
-0.127686
  0
VERTEX
 10
6.57771
 20
-0.119635
  0
VERTEX
 10
6.56161
 20
-0.153578
  0
VERTEX
 10
6.5701
 20
-0.157604
  0
VERTEX
 10
6.54464
 20
-0.145527
  0
SEQEND
  0
POLYLINE
 70
     1
  0
VERTEX
 10
-0.268268
 20
1.58799
  0
VERTEX
 10
0.00446118
 20
1.71297
  0
VERTEX
 10
0.0143499
 20
1.7093
  0
VERTEX
 10
0.139325
 20
1.43657
  0
SEQEND
  0
POLYLINE
 70
     0
  0
SEQEND
  0
POLYLINE
 70
     0
  0
VERTEX
 10
0.0220887
 20
1.53613
  0
VERTEX
 10
-0.0261334
 20
1.55404
  0
VERTEX
 10
-0.0171758
 20
1.57815
  0
VERTEX
 10
0.00693528
 20
1.5692
  0
VERTEX
 10
-0.0171758
 20
1.57815
  0
VERTEX
 10
-0.00821809
 20
1.60227
  0
VERTEX
 10
0.040004
 20
1.58435
  0
SEQEND
  0
POLYLINE
 70
     0
  0
VERTEX
 10
-0.0502445
 20
1.563
  0
VERTEX
 10
-0.0412868
 20
1.58711
  0
VERTEX
 10
-0.0895089
 20
1.60503
  0
VERTEX
 10
-0.0939878
 20
1.59297
  0
VERTEX
 10
-0.0805512
 20
1.62914
  0
SEQEND
  0
POLYLINE
 70
     1
  0
VERTEX
 10
-0.367473
 20
1.39758
  0
VERTEX
 10
-0.413077
 20
1.54239
  0
VERTEX
 10
-0.413077
 20
1.54239
  0
VERTEX
 10
-0.268268
 20
1.58799
  0
SEQEND
  0
POLYLINE
 70
     0
  0
SEQEND
  0
POLYLINE
 70
     0
  0
VERTEX
 10
-0.323499
 20
1.53948
  0
VERTEX
 10
-0.334927
 20
1.51755
  0
VERTEX
 10
-0.345893
 20
1.52326
  0
VERTEX
 10
-0.34018
 20
1.53423
  0
VERTEX
 10
-0.345893
 20
1.52326
  0
VERTEX
 10
-0.35686
 20
1.52898
  0
VERTEX
 10
-0.345433
 20
1.55091
  0
SEQEND
  0
POLYLINE
 70
     0
  0
VERTEX
 10
-0.344449
 20
1.49927
  0
VERTEX
 10
-0.34064
 20
1.50658
  0
VERTEX
 10
-0.355263
 20
1.5142
  0
VERTEX
 10
-0.36669
 20
1.49227
  0
VERTEX
 10
-0.374001
 20
1.49608
  0
VERTEX
 10
-0.362574
 20
1.51801
  0
VERTEX
 10
-0.355263
 20
1.5142
  0
SEQEND
  0
POLYLINE
 70
     1
  0
VERTEX
 10
0.603798
 20
1.22299
  0
VERTEX
 10
0.696978
 20
1.34285
  0
VERTEX
 10
0.696978
 20
1.34285
  0
VERTEX
 10
0.577116
 20
1.43603
  0
SEQEND
  0
POLYLINE
 70
     0
  0
SEQEND
  0
POLYLINE
 70
     0
  0
VERTEX
 10
0.621643
 20
1.2943
  0
VERTEX
 10
0.618569
 20
1.31884
  0
VERTEX
 10
0.630839
 20
1.32038
  0
VERTEX
 10
0.632376
 20
1.30811
  0
VERTEX
 10
0.630839
 20
1.32038
  0
VERTEX
 10
0.643109
 20
1.32191
  0
VERTEX
 10
0.646183
 20
1.29737
  0
SEQEND
  0
POLYLINE
 70
     0
  0
VERTEX
 10
0.641573
 20
1.33418
  0
VERTEX
 10
0.638499
 20
1.35872
  0
VERTEX
 10
0.613959
 20
1.35565
  0
VERTEX
 10
0.617033
 20
1.33111
  0
VERTEX
 10
0.641573
 20
1.33418
  0
SEQEND
  0
POLYLINE
 70
     1
  0
VERTEX
 10
0.577116
 20
1.43603
  0
VERTEX
 10
0.645327
 20
1.57188
  0
VERTEX
 10
0.645327
 20
1.57188
  0
VERTEX
 10
0.509479
 20
1.64009
  0
SEQEND
  0
POLYLINE
 70
     0
  0
SEQEND
  0
POLYLINE
 70
     0
  0
VERTEX
 10
0.580775
 20
1.50954
  0
VERTEX
 10
0.572984
 20
1.53305
  0
VERTEX
 10
0.584737
 20
1.53694
  0
VERTEX
 10
0.592528
 20
1.51344
  0
VERTEX
 10
0.604281
 20
1.51733
  0
VERTEX
 10
0.59649
 20
1.54084
  0
SEQEND
  0
POLYLINE
 70
     0
  0
VERTEX
 10
0.576924
 20
1.5474
  0
VERTEX
 10
0.569089
 20
1.5448
  0
VERTEX
 10
0.561298
 20
1.56831
  0
VERTEX
 10
0.569133
 20
1.5709
  0
VERTEX
 10
0.582039
 20
1.5635
  0
VERTEX
 10
0.589874
 20
1.56609
  0
SEQEND
  0
POLYLINE
 70
     1
  0
VERTEX
 10
-0.533505
 20
1.84719
  0
VERTEX
 10
-0.261022
 20
1.72168
  0
VERTEX
 10
-0.241962
 20
1.67006
  0
VERTEX
 10
-0.367473
 20
1.39758
  0
SEQEND
  0
POLYLINE
 70
     0
  0
SEQEND
  0
POLYLINE
 70
     0
  0
VERTEX
 10
-0.378896
 20
1.58007
  0
VERTEX
 10
-0.398642
 20
1.63354
  0
VERTEX
 10
-0.371906
 20
1.64341
  0
VERTEX
 10
-0.362034
 20
1.61667
  0
VERTEX
 10
-0.371906
 20
1.64341
  0
VERTEX
 10
-0.345171
 20
1.65328
  0
VERTEX
 10
-0.325425
 20
1.59981
  0
SEQEND
  0
POLYLINE
 70
     0
  0
VERTEX
 10
-0.390691
 20
1.66685
  0
VERTEX
 10
-0.408515
 20
1.66027
  0
VERTEX
 10
-0.428261
 20
1.71374
  0
VERTEX
 10
-0.410437
 20
1.72032
  0
VERTEX
 10
-0.380172
 20
1.70428
  0
VERTEX
 10
-0.362348
 20
1.71087
  0
SEQEND
  0
POLYLINE
 70
     1
  0
VERTEX
 10
-0.569392
 20
2.43192
  0
VERTEX
 10
-0.825973
 20
2.27647
  0
VERTEX
 10
-0.870886
 20
2.09347
  0
VERTEX
 10
-0.715432
 20
1.83689
  0
SEQEND
  0
POLYLINE
 70
     0
  0
SEQEND
  0
POLYLINE
 70
     0
  0
VERTEX
 10
-0.679097
 20
2.20519
  0
VERTEX
 10
-0.693398
 20
2.14692
  0
VERTEX
 10
-0.722534
 20
2.15407
  0
VERTEX
 10
-0.715383
 20
2.18321
  0
VERTEX
 10
-0.722534
 20
2.15407
  0
VERTEX
 10
-0.751669
 20
2.16122
  0
VERTEX
 10
-0.737368
 20
2.21949
  0
SEQEND
  0
POLYLINE
 70
     0
  0
VERTEX
 10
-0.740411
 20
2.08123
  0
VERTEX
 10
-0.711275
 20
2.07408
  0
VERTEX
 10
-0.704125
 20
2.10322
  0
VERTEX
 10
-0.73326
 20
2.11037
  0
VERTEX
 10
-0.729684
 20
2.12494
  0
VERTEX
 10
-0.75882
 20
2.13209
  0
VERTEX
 10
-0.773121
 20
2.07382
  0
VERTEX
 10
-0.743986
 20
2.06667
  0
VERTEX
 10
-0.73326
 20
2.11037
  0
SEQEND
  0
POLYLINE
 70
     1
  0
VERTEX
 10
-0.419265
 20
2.31266
  0
VERTEX
 10
-0.434695
 20
2.44735
  0
VERTEX
 10
-0.434695
 20
2.44735
  0
VERTEX
 10
-0.569392
 20
2.43192
  0
SEQEND
  0
POLYLINE
 70
     0
  0
SEQEND
  0
POLYLINE
 70
     0
  0
VERTEX
 10
-0.452431
 20
2.36931
  0
VERTEX
 10
-0.469724
 20
2.38305
  0
VERTEX
 10
-0.462855
 20
2.39169
  0
VERTEX
 10
-0.454209
 20
2.38482
  0
VERTEX
 10
-0.462855
 20
2.39169
  0
VERTEX
 10
-0.455986
 20
2.40034
  0
VERTEX
 10
-0.438693
 20
2.3866
  0
SEQEND
  0
POLYLINE
 70
     0
  0
VERTEX
 10
-0.491084
 20
2.40942
  0
VERTEX
 10
-0.495664
 20
2.40365
  0
VERTEX
 10
-0.478371
 20
2.38991
  0
VERTEX
 10
-0.473791
 20
2.39568
  0
VERTEX
 10
-0.491084
 20
2.40942
  0
VERTEX
 10
-0.481926
 20
2.42095
  0
VERTEX
 10
-0.476161
 20
2.41637
  0
SEQEND
  0
POLYLINE
 70
     1
  0
VERTEX
 10
-1.09246
 20
2.31443
  0
VERTEX
 10
-0.822689
 20
2.18319
  0
VERTEX
 10
-0.761162
 20
2.00509
  0
VERTEX
 10
-0.8924
 20
1.73532
  0
SEQEND
  0
POLYLINE
 70
     0
  0
SEQEND
  0
POLYLINE
 70
     0
  0
VERTEX
 10
-0.923216
 20
1.98531
  0
VERTEX
 10
-0.942808
 20
2.04202
  0
VERTEX
 10
-0.914452
 20
2.05181
  0
VERTEX
 10
-0.904656
 20
2.02346
  0
VERTEX
 10
-0.914452
 20
2.05181
  0
VERTEX
 10
-0.886096
 20
2.06161
  0
VERTEX
 10
-0.866505
 20
2.0049
  0
SEQEND
  0
POLYLINE
 70
     0
  0
VERTEX
 10
-0.938942
 20
2.1227
  0
VERTEX
 10
-0.967297
 20
2.11291
  0
VERTEX
 10
-0.957501
 20
2.08455
  0
VERTEX
 10
-0.929146
 20
2.09435
  0
VERTEX
 10
-0.924248
 20
2.08017
  0
VERTEX
 10
-0.895892
 20
2.08996
  0
VERTEX
 10
-0.915484
 20
2.14667
  0
VERTEX
 10
-0.943839
 20
2.13688
  0
VERTEX
 10
-0.929146
 20
2.09435
  0
SEQEND
  0
POLYLINE
 70
     1
  0
VERTEX
 10
-1.39919
 20
2.29315
  0
VERTEX
 10
-1.25646
 20
2.45715
  0
VERTEX
 10
-1.25646
 20
2.45715
  0
VERTEX
 10
-1.09246
 20
2.31443
  0
SEQEND
  0
POLYLINE
 70
     0
  0
SEQEND
  0
POLYLINE
 70
     0
  0
VERTEX
 10
-1.19301
 20
2.34559
  0
VERTEX
 10
-1.19424
 20
2.36326
  0
VERTEX
 10
-1.22957
 20
2.36081
  0
VERTEX
 10
-1.22895
 20
2.35197
  0
VERTEX
 10
-1.23079
 20
2.37847
  0
SEQEND
  0
POLYLINE
 70
     0
  0
VERTEX
 10
-1.24846
 20
2.37725
  0
VERTEX
 10
-1.28379
 20
2.3748
  0
VERTEX
 10
-1.28134
 20
2.33946
  0
VERTEX
 10
-1.24601
 20
2.34192
  0
VERTEX
 10
-1.24846
 20
2.37725
  0
SEQEND
  0
POLYLINE
 70
     1
  0
VERTEX
 10
-1.15557
 20
1.58795
  0
VERTEX
 10
-1.42534
 20
1.71918
  0
VERTEX
 10
-1.53043
 20
2.02338
  0
VERTEX
 10
-1.39919
 20
2.29315
  0
SEQEND
  0
POLYLINE
 70
     0
  0
SEQEND
  0
POLYLINE
 70
     0
  0
VERTEX
 10
-1.34659
 20
1.98012
  0
VERTEX
 10
-1.3368
 20
1.95176
  0
VERTEX
 10
-1.39351
 20
1.93217
  0
VERTEX
 10
-1.4033
 20
1.96053
  0
VERTEX
 10
-1.38371
 20
1.90381
  0
VERTEX
 10
-1.36481
 20
1.91035
  0
SEQEND
  0
POLYLINE
 70
     0
  0
VERTEX
 10
-1.31721
 20
1.89505
  0
VERTEX
 10
-1.29761
 20
1.83834
  0
VERTEX
 10
-1.32597
 20
1.82854
  0
VERTEX
 10
-1.33577
 20
1.8569
  0
VERTEX
 10
-1.32597
 20
1.82854
  0
VERTEX
 10
-1.35433
 20
1.81875
  0
VERTEX
 10
-1.37392
 20
1.87546
  0
SEQEND
  0
POLYLINE
 70
     1
  0
VERTEX
 10
-1.15557
 20
1.58795
  0
VERTEX
 10
-1.18464
 20
1.28936
  0
VERTEX
 10
-0.980192
 20
1.0408
  0
VERTEX
 10
-0.681604
 20
1.01173
  0
SEQEND
  0
POLYLINE
 70
     0
  0
SEQEND
  0
POLYLINE
 70
     0
  0
VERTEX
 10
-0.997248
 20
1.31283
  0
VERTEX
 10
-0.97819
 20
1.28966
  0
VERTEX
 10
-1.02453
 20
1.25154
  0
VERTEX
 10
-1.04359
 20
1.27471
  0
VERTEX
 10
-1.00547
 20
1.22837
  0
VERTEX
 10
-0.990024
 20
1.24108
  0
SEQEND
  0
POLYLINE
 70
     0
  0
VERTEX
 10
-0.940075
 20
1.24332
  0
VERTEX
 10
-0.901959
 20
1.19698
  0
VERTEX
 10
-0.925128
 20
1.17792
  0
VERTEX
 10
-0.963244
 20
1.22426
  0
VERTEX
 10
-0.986413
 20
1.2052
  0
VERTEX
 10
-0.948297
 20
1.15887
  0
SEQEND
  0
POLYLINE
 70
     1
  0
VERTEX
 10
6.39099
 20
0.575837
  0
VERTEX
 10
6.33499
 20
0.350684
  0
VERTEX
 10
6.33499
 20
0.350684
  0
VERTEX
 10
6.56014
 20
0.294679
  0
SEQEND
  0
POLYLINE
 70
     0
  0
SEQEND
  0
POLYLINE
 70
     0
  0
VERTEX
 10
6.4102
 20
0.465152
  0
VERTEX
 10
6.42968
 20
0.432766
  0
VERTEX
 10
6.41349
 20
0.423024
  0
VERTEX
 10
6.394
 20
0.45541
  0
VERTEX
 10
6.37781
 20
0.445669
  0
VERTEX
 10
6.39729
 20
0.413282
  0
SEQEND
  0
POLYLINE
 70
     0
  0
VERTEX
 10
6.43942
 20
0.416573
  0
VERTEX
 10
6.45891
 20
0.384187
  0
VERTEX
 10
6.44271
 20
0.374445
  0
VERTEX
 10
6.42323
 20
0.406831
  0
VERTEX
 10
6.40704
 20
0.397089
  0
VERTEX
 10
6.42652
 20
0.364703
  0
SEQEND
  0
POLYLINE
 70
     1
  0
VERTEX
 10
6.51222
 20
0.753372
  0
VERTEX
 10
6.36284
 20
0.72522
  0
VERTEX
 10
6.36284
 20
0.72522
  0
VERTEX
 10
6.39099
 20
0.575837
  0
SEQEND
  0
POLYLINE
 70
     0
  0
SEQEND
  0
POLYLINE
 70
     0
  0
VERTEX
 10
6.45155
 20
0.711699
  0
VERTEX
 10
6.44133
 20
0.718681
  0
VERTEX
 10
6.42736
 20
0.698231
  0
VERTEX
 10
6.43248
 20
0.69474
  0
VERTEX
 10
6.41714
 20
0.705214
  0
SEQEND
  0
POLYLINE
 70
     0
  0
VERTEX
 10
6.43061
 20
0.681024
  0
VERTEX
 10
6.42363
 20
0.670799
  0
VERTEX
 10
6.40318
 20
0.684764
  0
VERTEX
 10
6.41016
 20
0.694989
  0
VERTEX
 10
6.39619
 20
0.674539
  0
VERTEX
 10
6.40301
 20
0.669884
  0
SEQEND
  0
POLYLINE
 70
     1
  0
VERTEX
 10
6.7781
 20
0.412732
  0
VERTEX
 10
6.8148
 20
0.710479
  0
VERTEX
 10
6.80997
 20
0.716672
  0
VERTEX
 10
6.51222
 20
0.753372
  0
SEQEND
  0
POLYLINE
 70
     0
  0
SEQEND
  0
POLYLINE
 70
     0
  0
VERTEX
 10
6.73137
 20
0.557938
  0
VERTEX
 10
6.75164
 20
0.573764
  0
VERTEX
 10
6.71999
 20
0.614316
  0
VERTEX
 10
6.70985
 20
0.606403
  0
VERTEX
 10
6.74026
 20
0.630142
  0
SEQEND
  0
POLYLINE
 70
     0
  0
VERTEX
 10
6.68389
 20
0.618766
  0
VERTEX
 10
6.65223
 20
0.659318
  0
VERTEX
 10
6.67251
 20
0.675144
  0
VERTEX
 10
6.70416
 20
0.634592
  0
VERTEX
 10
6.72444
 20
0.650418
  0
VERTEX
 10
6.69279
 20
0.69097
  0
SEQEND
  0
POLYLINE
 70
     1
  0
VERTEX
 10
-0.322364
 20
1.81368
  0
VERTEX
 10
-0.444687
 20
1.72486
  0
VERTEX
 10
-0.444687
 20
1.72486
  0
VERTEX
 10
-0.533505
 20
1.84719
  0
SEQEND
  0
POLYLINE
 70
     0
  0
SEQEND
  0
POLYLINE
 70
     0
  0
VERTEX
 10
-0.470249
 20
1.81036
  0
VERTEX
 10
-0.472179
 20
1.7982
  0
VERTEX
 10
-0.447858
 20
1.79434
  0
VERTEX
 10
-0.446893
 20
1.80042
  0
VERTEX
 10
-0.449787
 20
1.78218
  0
SEQEND
  0
POLYLINE
 70
     0
  0
VERTEX
 10
-0.433767
 20
1.80458
  0
VERTEX
 10
-0.409446
 20
1.80072
  0
VERTEX
 10
-0.411376
 20
1.78856
  0
VERTEX
 10
-0.423537
 20
1.79049
  0
VERTEX
 10
-0.411376
 20
1.78856
  0
VERTEX
 10
-0.413306
 20
1.77639
  0
VERTEX
 10
-0.437627
 20
1.78025
  0
SEQEND
  0
POLYLINE
 70
     1
  0
VERTEX
 10
-0.218724
 20
2.23596
  0
VERTEX
 10
-0.0632689
 20
1.97938
  0
VERTEX
 10
-0.0657834
 20
1.96914
  0
VERTEX
 10
-0.322364
 20
1.81368
  0
SEQEND
  0
POLYLINE
 70
     0
  0
SEQEND
  0
POLYLINE
 70
     0
  0
VERTEX
 10
-0.236918
 20
1.94157
  0
VERTEX
 10
-0.211938
 20
1.93544
  0
VERTEX
 10
-0.199677
 20
1.9854
  0
VERTEX
 10
-0.212167
 20
1.98847
  0
VERTEX
 10
-0.174697
 20
1.97927
  0
SEQEND
  0
POLYLINE
 70
     0
  0
VERTEX
 10
-0.218526
 20
2.01651
  0
VERTEX
 10
-0.206264
 20
2.06647
  0
VERTEX
 10
-0.181284
 20
2.06034
  0
VERTEX
 10
-0.193546
 20
2.01038
  0
VERTEX
 10
-0.168566
 20
2.00425
  0
VERTEX
 10
-0.156304
 20
2.05421
  0
SEQEND
  0
POLYLINE
 70
     1
  0
VERTEX
 10
-0.419265
 20
2.31266
  0
VERTEX
 10
-0.280648
 20
2.37458
  0
VERTEX
 10
-0.280648
 20
2.37458
  0
VERTEX
 10
-0.218724
 20
2.23596
  0
SEQEND
  0
POLYLINE
 70
     0
  0
SEQEND
  0
POLYLINE
 70
     0
  0
VERTEX
 10
-0.273252
 20
2.28526
  0
VERTEX
 10
-0.268835
 20
2.29681
  0
VERTEX
 10
-0.291935
 20
2.30565
  0
VERTEX
 10
-0.294144
 20
2.29987
  0
VERTEX
 10
-0.287518
 20
2.3172
  0
SEQEND
  0
POLYLINE
 70
     0
  0
VERTEX
 10
-0.307902
 20
2.29851
  0
VERTEX
 10
-0.303485
 20
2.31006
  0
VERTEX
 10
-0.326585
 20
2.3189
  0
VERTEX
 10
-0.328794
 20
2.31312
  0
VERTEX
 10
-0.322168
 20
2.33045
  0
SEQEND
  0
POLYLINE
 70
     1
  0
VERTEX
 10
6.91491
 20
0
  0
VERTEX
 10
7.04107
 20
-0.0844584
  0
VERTEX
 10
7.04107
 20
-0.0844584
  0
VERTEX
 10
7.12552
 20
0.0417005
  0
SEQEND
  0
POLYLINE
 70
     0
  0
SEQEND
  0
POLYLINE
 70
     0
  0
VERTEX
 10
6.9873
 20
-0.0127505
  0
VERTEX
 10
7.01156
 20
-0.00794713
  0
VERTEX
 10
7.01396
 20
-0.0200775
  0
VERTEX
 10
7.00183
 20
-0.0224792
  0
VERTEX
 10
7.01396
 20
-0.0200775
  0
VERTEX
 10
7.01637
 20
-0.0322078
  0
VERTEX
 10
6.99211
 20
-0.0370113
  0
SEQEND
  0
POLYLINE
 70
     0
  0
VERTEX
 10
7.03178
 20
-0.00394427
  0
VERTEX
 10
7.02369
 20
-0.00554542
  0
VERTEX
 10
7.0269
 20
-0.0217192
  0
VERTEX
 10
7.05116
 20
-0.0169158
  0
VERTEX
 10
7.05276
 20
-0.0250027
  0
VERTEX
 10
7.0285
 20
-0.0298061
  0
VERTEX
 10
7.0269
 20
-0.0217192
  0
SEQEND
  0
POLYLINE
 70
     1
  0
VERTEX
 10
6.97473
 20
0.496644
  0
VERTEX
 10
6.83446
 20
0.553001
  0
VERTEX
 10
6.83446
 20
0.553001
  0
VERTEX
 10
6.7781
 20
0.412732
  0
SEQEND
  0
POLYLINE
 70
     0
  0
SEQEND
  0
POLYLINE
 70
     0
  0
VERTEX
 10
6.90158
 20
0.494188
  0
VERTEX
 10
6.89675
 20
0.505513
  0
VERTEX
 10
6.8741
 20
0.495847
  0
VERTEX
 10
6.87651
 20
0.490185
  0
VERTEX
 10
6.86926
 20
0.507171
  0
SEQEND
  0
POLYLINE
 70
     0
  0
VERTEX
 10
6.8676
 20
0.47969
  0
VERTEX
 10
6.84496
 20
0.470024
  0
VERTEX
 10
6.84012
 20
0.481348
  0
VERTEX
 10
6.85145
 20
0.486181
  0
VERTEX
 10
6.84012
 20
0.481348
  0
VERTEX
 10
6.83529
 20
0.492673
  0
VERTEX
 10
6.85794
 20
0.502339
  0
SEQEND
  0
POLYLINE
 70
     1
  0
VERTEX
 10
7.12552
 20
0.0417005
  0
VERTEX
 10
7.26014
 20
0.309801
  0
VERTEX
 10
7.24283
 20
0.362027
  0
VERTEX
 10
6.97473
 20
0.496644
  0
SEQEND
  0
POLYLINE
 70
     0
  0
SEQEND
  0
POLYLINE
 70
     0
  0
VERTEX
 10
7.12025
 20
0.224466
  0
VERTEX
 10
7.10232
 20
0.278571
  0
VERTEX
 10
7.12937
 20
0.287538
  0
VERTEX
 10
7.13834
 20
0.260485
  0
VERTEX
 10
7.12937
 20
0.287538
  0
VERTEX
 10
7.15643
 20
0.296504
  0
VERTEX
 10
7.17436
 20
0.242399
  0
SEQEND
  0
POLYLINE
 70
     0
  0
VERTEX
 10
7.11139
 20
0.311601
  0
VERTEX
 10
7.09335
 20
0.305624
  0
VERTEX
 10
7.07542
 20
0.359729
  0
VERTEX
 10
7.09346
 20
0.365707
  0
VERTEX
 10
7.12316
 20
0.348657
  0
VERTEX
 10
7.1412
 20
0.354635
  0
SEQEND
  0
POLYLINE
 70
     1
  0
VERTEX
 10
6.69993
 20
0
  0
VERTEX
 10
6.48269
 20
0.0774444
  0
VERTEX
 10
6.48269
 20
0.0774444
  0
VERTEX
 10
6.56014
 20
0.294679
  0
SEQEND
  0
POLYLINE
 70
     0
  0
SEQEND
  0
POLYLINE
 70
     0
  0
VERTEX
 10
6.5683
 20
0.18331
  0
VERTEX
 10
6.5844
 20
0.149367
  0
VERTEX
 10
6.56743
 20
0.141316
  0
VERTEX
 10
6.55133
 20
0.175259
  0
VERTEX
 10
6.53436
 20
0.167208
  0
VERTEX
 10
6.55046
 20
0.133265
  0
SEQEND
  0
POLYLINE
 70
     0
  0
VERTEX
 10
6.60856
 20
0.0984513
  0
VERTEX
 10
6.59245
 20
0.132395
  0
VERTEX
 10
6.57548
 20
0.124344
  0
VERTEX
 10
6.59158
 20
0.0904003
  0
VERTEX
 10
6.57461
 20
0.0823492
  0
VERTEX
 10
6.55851
 20
0.116293
  0
SEQEND
  0
POLYLINE
 70
     1
  0
VERTEX
 10
1.43384
 20
1.09712
  0
VERTEX
 10
1.48605
 20
1.21491
  0
VERTEX
 10
1.48605
 20
1.21491
  0
VERTEX
 10
1.36826
 20
1.26713
  0
SEQEND
  0
POLYLINE
 70
     0
  0
SEQEND
  0
POLYLINE
 70
     0
  0
VERTEX
 10
1.43394
 20
1.1595
  0
VERTEX
 10
1.44373
 20
1.16328
  0
VERTEX
 10
1.43618
 20
1.18286
  0
VERTEX
 10
1.43128
 20
1.18098
  0
VERTEX
 10
1.44597
 20
1.18664
  0
SEQEND
  0
POLYLINE
 70
     0
  0
VERTEX
 10
1.41506
 20
1.20846
  0
VERTEX
 10
1.42261
 20
1.18888
  0
VERTEX
 10
1.4324
 20
1.19266
  0
VERTEX
 10
1.42485
 20
1.21224
  0
VERTEX
 10
1.43464
 20
1.21602
  0
VERTEX
 10
1.44219
 20
1.19643
  0
SEQEND
  0
POLYLINE
 70
     1
  0
VERTEX
 10
0.890182
 20
1.23315
  0
VERTEX
 10
0.766703
 20
1.17717
  0
VERTEX
 10
0.766703
 20
1.17717
  0
VERTEX
 10
0.822688
 20
1.05369
  0
SEQEND
  0
POLYLINE
 70
     0
  0
SEQEND
  0
POLYLINE
 70
     0
  0
VERTEX
 10
0.846428
 20
1.18421
  0
VERTEX
 10
0.838654
 20
1.16354
  0
VERTEX
 10
0.828318
 20
1.16743
  0
VERTEX
 10
0.832205
 20
1.17776
  0
VERTEX
 10
0.828318
 20
1.16743
  0
VERTEX
 10
0.817982
 20
1.17132
  0
VERTEX
 10
0.825756
 20
1.19199
  0
SEQEND
  0
POLYLINE
 70
     0
  0
VERTEX
 10
0.834766
 20
1.15321
  0
VERTEX
 10
0.826992
 20
1.13253
  0
VERTEX
 10
0.816656
 20
1.13642
  0
VERTEX
 10
0.820543
 20
1.14676
  0
VERTEX
 10
0.816656
 20
1.13642
  0
VERTEX
 10
0.80632
 20
1.14031
  0
VERTEX
 10
0.814094
 20
1.16098
  0
SEQEND
  0
POLYLINE
 70
     1
  0
VERTEX
 10
2.03445
 20
1.34172
  0
VERTEX
 10
2.16626
 20
1.30995
  0
VERTEX
 10
2.16626
 20
1.30995
  0
VERTEX
 10
2.13449
 20
1.17815
  0
SEQEND
  0
POLYLINE
 70
     0
  0
SEQEND
  0
POLYLINE
 70
     0
  0
VERTEX
 10
2.1228
 20
1.24275
  0
VERTEX
 10
2.13222
 20
1.24851
  0
VERTEX
 10
2.12069
 20
1.26735
  0
VERTEX
 10
2.11598
 20
1.26447
  0
VERTEX
 10
2.13011
 20
1.27311
  0
SEQEND
  0
POLYLINE
 70
     0
  0
VERTEX
 10
2.10167
 20
1.27729
  0
VERTEX
 10
2.10551
 20
1.27101
  0
VERTEX
 10
2.11807
 20
1.27869
  0
VERTEX
 10
2.10655
 20
1.29753
  0
VERTEX
 10
2.11283
 20
1.30137
  0
VERTEX
 10
2.12435
 20
1.28253
  0
VERTEX
 10
2.11807
 20
1.27869
  0
SEQEND
  0
POLYLINE
 70
     1
  0
VERTEX
 10
1.52608
 20
1.10587
  0
VERTEX
 10
1.45264
 20
1.21174
  0
VERTEX
 10
1.45264
 20
1.21174
  0
VERTEX
 10
1.55852
 20
1.28518
  0
SEQEND
  0
POLYLINE
 70
     0
  0
SEQEND
  0
POLYLINE
 70
     0
  0
VERTEX
 10
1.52597
 20
1.23195
  0
VERTEX
 10
1.51565
 20
1.23382
  0
VERTEX
 10
1.51191
 20
1.21316
  0
VERTEX
 10
1.51707
 20
1.21223
  0
VERTEX
 10
1.50158
 20
1.21503
  0
SEQEND
  0
POLYLINE
 70
     0
  0
VERTEX
 10
1.51663
 20
1.18032
  0
VERTEX
 10
1.52037
 20
1.20097
  0
VERTEX
 10
1.51004
 20
1.20284
  0
VERTEX
 10
1.5063
 20
1.18218
  0
VERTEX
 10
1.49598
 20
1.18405
  0
VERTEX
 10
1.49971
 20
1.20471
  0
SEQEND
  0
POLYLINE
 70
     1
  0
VERTEX
 10
3.44111
 20
1.6284
  0
VERTEX
 10
3.57574
 20
1.61241
  0
VERTEX
 10
3.57574
 20
1.61241
  0
VERTEX
 10
3.55975
 20
1.47777
  0
SEQEND
  0
POLYLINE
 70
     0
  0
SEQEND
  0
POLYLINE
 70
     0
  0
VERTEX
 10
3.54051
 20
1.54054
  0
VERTEX
 10
3.52685
 20
1.55789
  0
VERTEX
 10
3.53552
 20
1.56472
  0
VERTEX
 10
3.54235
 20
1.55605
  0
VERTEX
 10
3.53552
 20
1.56472
  0
VERTEX
 10
3.5442
 20
1.57155
  0
VERTEX
 10
3.55786
 20
1.5542
  0
SEQEND
  0
POLYLINE
 70
     0
  0
VERTEX
 10
3.51213
 20
1.58847
  0
VERTEX
 10
3.50635
 20
1.58391
  0
VERTEX
 10
3.52001
 20
1.56656
  0
VERTEX
 10
3.5258
 20
1.57112
  0
VERTEX
 10
3.51213
 20
1.58847
  0
VERTEX
 10
3.5237
 20
1.59758
  0
VERTEX
 10
3.52825
 20
1.5918
  0
SEQEND
  0
POLYLINE
 70
     1
  0
VERTEX
 10
2.96411
 20
1.33422
  0
VERTEX
 10
2.8787
 20
1.43069
  0
VERTEX
 10
2.8787
 20
1.43069
  0
VERTEX
 10
2.97517
 20
1.5161
  0
SEQEND
  0
POLYLINE
 70
     0
  0
SEQEND
  0
POLYLINE
 70
     0
  0
VERTEX
 10
2.94913
 20
1.45941
  0
VERTEX
 10
2.93865
 20
1.46005
  0
VERTEX
 10
2.93738
 20
1.4391
  0
VERTEX
 10
2.94262
 20
1.43878
  0
VERTEX
 10
2.92691
 20
1.43973
  0
SEQEND
  0
POLYLINE
 70
     0
  0
VERTEX
 10
2.94024
 20
1.42841
  0
VERTEX
 10
2.94722
 20
1.42798
  0
VERTEX
 10
2.94595
 20
1.40703
  0
VERTEX
 10
2.93896
 20
1.40746
  0
VERTEX
 10
2.93114
 20
1.41735
  0
VERTEX
 10
2.92416
 20
1.41778
  0
SEQEND
  0
POLYLINE
 70
     1
  0
VERTEX
 10
2.87355
 20
1.31465
  0
VERTEX
 10
2.9115
 20
1.43778
  0
VERTEX
 10
2.9115
 20
1.43778
  0
VERTEX
 10
2.78837
 20
1.47573
  0
SEQEND
  0
POLYLINE
 70
     0
  0
SEQEND
  0
POLYLINE
 70
     0
  0
VERTEX
 10
2.86629
 20
1.37661
  0
VERTEX
 10
2.87556
 20
1.38152
  0
VERTEX
 10
2.86575
 20
1.40007
  0
VERTEX
 10
2.86111
 20
1.39762
  0
VERTEX
 10
2.87503
 20
1.40498
  0
SEQEND
  0
POLYLINE
 70
     0
  0
VERTEX
 10
2.85775
 20
1.40771
  0
VERTEX
 10
2.85157
 20
1.40444
  0
VERTEX
 10
2.84176
 20
1.423
  0
VERTEX
 10
2.84794
 20
1.42627
  0
VERTEX
 10
2.85977
 20
1.42189
  0
VERTEX
 10
2.86596
 20
1.42516
  0
SEQEND
  0
POLYLINE
 70
     1
  0
VERTEX
 10
2.31764
 20
1.3856
  0
VERTEX
 10
2.20163
 20
1.31544
  0
VERTEX
 10
2.20163
 20
1.31544
  0
VERTEX
 10
2.27179
 20
1.19942
  0
SEQEND
  0
POLYLINE
 70
     0
  0
SEQEND
  0
POLYLINE
 70
     0
  0
VERTEX
 10
2.27996
 20
1.33184
  0
VERTEX
 10
2.26924
 20
1.33448
  0
VERTEX
 10
2.26396
 20
1.31303
  0
VERTEX
 10
2.26932
 20
1.31171
  0
VERTEX
 10
2.25324
 20
1.31567
  0
SEQEND
  0
POLYLINE
 70
     0
  0
VERTEX
 10
2.27028
 20
1.29252
  0
VERTEX
 10
2.27204
 20
1.29967
  0
VERTEX
 10
2.25774
 20
1.30319
  0
VERTEX
 10
2.25246
 20
1.28175
  0
VERTEX
 10
2.24531
 20
1.28351
  0
VERTEX
 10
2.2506
 20
1.30495
  0
VERTEX
 10
2.25774
 20
1.30319
  0
SEQEND
  0
POLYLINE
 70
     1
  0
VERTEX
 10
3.70712
 20
1.20793
  0
VERTEX
 10
3.76836
 20
1.41654
  0
VERTEX
 10
3.76836
 20
1.41654
  0
VERTEX
 10
3.55975
 20
1.47777
  0
SEQEND
  0
POLYLINE
 70
     0
  0
SEQEND
  0
POLYLINE
 70
     0
  0
VERTEX
 10
3.69347
 20
1.31231
  0
VERTEX
 10
3.70901
 20
1.32079
  0
VERTEX
 10
3.69203
 20
1.35188
  0
VERTEX
 10
3.68426
 20
1.34763
  0
VERTEX
 10
3.70757
 20
1.36037
  0
SEQEND
  0
POLYLINE
 70
     0
  0
VERTEX
 10
3.69908
 20
1.37591
  0
VERTEX
 10
3.68211
 20
1.40699
  0
VERTEX
 10
3.65103
 20
1.39002
  0
VERTEX
 10
3.668
 20
1.35893
  0
VERTEX
 10
3.69908
 20
1.37591
  0
SEQEND
  0
POLYLINE
 70
     1
  0
VERTEX
 10
2.30378
 20
1.59985
  0
VERTEX
 10
2.20358
 20
1.48579
  0
VERTEX
 10
2.20358
 20
1.48579
  0
VERTEX
 10
2.31764
 20
1.3856
  0
SEQEND
  0
POLYLINE
 70
     0
  0
SEQEND
  0
POLYLINE
 70
     0
  0
VERTEX
 10
2.28169
 20
1.52974
  0
VERTEX
 10
2.28329
 20
1.50506
  0
VERTEX
 10
2.27095
 20
1.50426
  0
VERTEX
 10
2.27015
 20
1.5166
  0
VERTEX
 10
2.27095
 20
1.50426
  0
VERTEX
 10
2.2586
 20
1.50346
  0
VERTEX
 10
2.25701
 20
1.52814
  0
SEQEND
  0
POLYLINE
 70
     0
  0
VERTEX
 10
2.28408
 20
1.49272
  0
VERTEX
 10
2.28488
 20
1.48038
  0
VERTEX
 10
2.2602
 20
1.47878
  0
VERTEX
 10
2.2594
 20
1.49112
  0
VERTEX
 10
2.261
 20
1.46644
  0
VERTEX
 10
2.26923
 20
1.46698
  0
SEQEND
  0
POLYLINE
 70
     1
  0
VERTEX
 10
2.78837
 20
1.47573
  0
VERTEX
 10
2.86255
 20
1.60745
  0
VERTEX
 10
2.86255
 20
1.60745
  0
VERTEX
 10
2.73083
 20
1.68163
  0
SEQEND
  0
POLYLINE
 70
     0
  0
SEQEND
  0
POLYLINE
 70
     0
  0
VERTEX
 10
2.79548
 20
1.54858
  0
VERTEX
 10
2.80734
 20
1.55189
  0
VERTEX
 10
2.80071
 20
1.57561
  0
VERTEX
 10
2.79478
 20
1.57395
  0
VERTEX
 10
2.81257
 20
1.57892
  0
SEQEND
  0
POLYLINE
 70
     0
  0
VERTEX
 10
2.79242
 20
1.60526
  0
VERTEX
 10
2.78057
 20
1.60194
  0
VERTEX
 10
2.78388
 20
1.59008
  0
VERTEX
 10
2.79574
 20
1.5934
  0
VERTEX
 10
2.7974
 20
1.58747
  0
VERTEX
 10
2.80925
 20
1.59078
  0
VERTEX
 10
2.80263
 20
1.6145
  0
VERTEX
 10
2.79077
 20
1.61119
  0
VERTEX
 10
2.79574
 20
1.5934
  0
SEQEND
  0
POLYLINE
 70
     1
  0
VERTEX
 10
3.36525
 20
1.82926
  0
VERTEX
 10
3.50361
 20
1.76676
  0
VERTEX
 10
3.50361
 20
1.76676
  0
VERTEX
 10
3.44111
 20
1.6284
  0
SEQEND
  0
POLYLINE
 70
     0
  0
SEQEND
  0
POLYLINE
 70
     0
  0
VERTEX
 10
3.44175
 20
1.7019
  0
VERTEX
 10
3.45332
 20
1.70627
  0
VERTEX
 10
3.44458
 20
1.72941
  0
VERTEX
 10
3.43879
 20
1.72723
  0
VERTEX
 10
3.45615
 20
1.73378
  0
SEQEND
  0
POLYLINE
 70
     0
  0
VERTEX
 10
3.42864
 20
1.73661
  0
VERTEX
 10
3.44021
 20
1.74098
  0
VERTEX
 10
3.43147
 20
1.76412
  0
VERTEX
 10
3.42569
 20
1.76193
  0
VERTEX
 10
3.44304
 20
1.76848
  0
SEQEND
  0
POLYLINE
 70
     1
  0
VERTEX
 10
2.97517
 20
1.5161
  0
VERTEX
 10
2.85322
 20
1.60543
  0
VERTEX
 10
2.85322
 20
1.60543
  0
VERTEX
 10
2.94254
 20
1.72738
  0
SEQEND
  0
POLYLINE
 70
     0
  0
SEQEND
  0
POLYLINE
 70
     0
  0
VERTEX
 10
2.92681
 20
1.6559
  0
VERTEX
 10
2.91464
 20
1.65402
  0
VERTEX
 10
2.9184
 20
1.62968
  0
VERTEX
 10
2.92449
 20
1.63062
  0
VERTEX
 10
2.90623
 20
1.6278
  0
SEQEND
  0
POLYLINE
 70
     0
  0
VERTEX
 10
2.9231
 20
1.59926
  0
VERTEX
 10
2.93527
 20
1.60114
  0
VERTEX
 10
2.93339
 20
1.61331
  0
VERTEX
 10
2.92122
 20
1.61143
  0
VERTEX
 10
2.92028
 20
1.61751
  0
VERTEX
 10
2.90811
 20
1.61564
  0
VERTEX
 10
2.91187
 20
1.5913
  0
VERTEX
 10
2.92404
 20
1.59318
  0
VERTEX
 10
2.92122
 20
1.61143
  0
SEQEND
  0
POLYLINE
 70
     1
  0
VERTEX
 10
2.92764
 20
1.97482
  0
VERTEX
 10
2.81137
 20
1.84365
  0
VERTEX
 10
2.81137
 20
1.84365
  0
VERTEX
 10
2.94254
 20
1.72738
  0
SEQEND
  0
POLYLINE
 70
     0
  0
SEQEND
  0
POLYLINE
 70
     0
  0
VERTEX
 10
2.90178
 20
1.89398
  0
VERTEX
 10
2.88753
 20
1.89312
  0
VERTEX
 10
2.88924
 20
1.86462
  0
VERTEX
 10
2.89637
 20
1.86505
  0
VERTEX
 10
2.87499
 20
1.86376
  0
SEQEND
  0
POLYLINE
 70
     0
  0
VERTEX
 10
2.89657
 20
1.82216
  0
VERTEX
 10
2.90607
 20
1.82273
  0
VERTEX
 10
2.90435
 20
1.85123
  0
VERTEX
 10
2.89485
 20
1.85066
  0
VERTEX
 10
2.89657
 20
1.82216
  0
VERTEX
 10
2.87757
 20
1.82101
  0
VERTEX
 10
2.877
 20
1.83051
  0
SEQEND
  0
POLYLINE
 70
     1
  0
VERTEX
 10
3.25393
 20
2.00933
  0
VERTEX
 10
3.07353
 20
2.15522
  0
VERTEX
 10
3.07353
 20
2.15522
  0
VERTEX
 10
2.92764
 20
1.97482
  0
SEQEND
  0
POLYLINE
 70
     0
  0
SEQEND
  0
POLYLINE
 70
     0
  0
VERTEX
 10
3.1455
 20
2.03869
  0
VERTEX
 10
3.10791
 20
2.03471
  0
VERTEX
 10
3.10592
 20
2.05351
  0
VERTEX
 10
3.14351
 20
2.05748
  0
VERTEX
 10
3.14152
 20
2.07627
  0
VERTEX
 10
3.10394
 20
2.0723
  0
SEQEND
  0
POLYLINE
 70
     0
  0
VERTEX
 10
3.08912
 20
2.03273
  0
VERTEX
 10
3.05153
 20
2.02875
  0
VERTEX
 10
3.04955
 20
2.04754
  0
VERTEX
 10
3.06834
 20
2.04953
  0
VERTEX
 10
3.04955
 20
2.04754
  0
VERTEX
 10
3.04756
 20
2.06634
  0
VERTEX
 10
3.08514
 20
2.07031
  0
SEQEND
  0
POLYLINE
 70
     1
  0
VERTEX
 10
3.36525
 20
1.82926
  0
VERTEX
 10
3.39963
 20
1.97495
  0
VERTEX
 10
3.39963
 20
1.97495
  0
VERTEX
 10
3.25393
 20
2.00933
  0
SEQEND
  0
POLYLINE
 70
     0
  0
SEQEND
  0
POLYLINE
 70
     0
  0
VERTEX
 10
3.352
 20
1.90052
  0
VERTEX
 10
3.36237
 20
1.90693
  0
VERTEX
 10
3.34955
 20
1.92767
  0
VERTEX
 10
3.34436
 20
1.92447
  0
VERTEX
 10
3.35992
 20
1.93408
  0
SEQEND
  0
POLYLINE
 70
     0
  0
VERTEX
 10
3.33277
 20
1.93163
  0
VERTEX
 10
3.32635
 20
1.942
  0
VERTEX
 10
3.3471
 20
1.95483
  0
VERTEX
 10
3.35351
 20
1.94445
  0
VERTEX
 10
3.34068
 20
1.9652
  0
VERTEX
 10
3.33377
 20
1.96092
  0
SEQEND
  0
POLYLINE
 70
     1
  0
VERTEX
 10
2.30378
 20
1.59985
  0
VERTEX
 10
2.2123
 20
1.71835
  0
VERTEX
 10
2.2123
 20
1.71835
  0
VERTEX
 10
2.3308
 20
1.80983
  0
SEQEND
  0
POLYLINE
 70
     0
  0
SEQEND
  0
POLYLINE
 70
     0
  0
VERTEX
 10
2.29619
 20
1.74614
  0
VERTEX
 10
2.29308
 20
1.72195
  0
VERTEX
 10
2.28099
 20
1.72351
  0
VERTEX
 10
2.28254
 20
1.7356
  0
VERTEX
 10
2.28099
 20
1.72351
  0
VERTEX
 10
2.26889
 20
1.72507
  0
VERTEX
 10
2.27201
 20
1.74925
  0
SEQEND
  0
POLYLINE
 70
     0
  0
VERTEX
 10
2.29152
 20
1.70986
  0
VERTEX
 10
2.28841
 20
1.68567
  0
VERTEX
 10
2.27632
 20
1.68723
  0
VERTEX
 10
2.27943
 20
1.71142
  0
VERTEX
 10
2.26734
 20
1.71297
  0
VERTEX
 10
2.26422
 20
1.68879
  0
SEQEND
  0
POLYLINE
 70
     1
  0
VERTEX
 10
2.64223
 20
1.91313
  0
VERTEX
 10
2.80228
 20
1.84168
  0
VERTEX
 10
2.80228
 20
1.84168
  0
VERTEX
 10
2.73083
 20
1.68163
  0
SEQEND
  0
POLYLINE
 70
     0
  0
SEQEND
  0
POLYLINE
 70
     0
  0
VERTEX
 10
2.73119
 20
1.7665
  0
VERTEX
 10
2.74453
 20
1.7716
  0
VERTEX
 10
2.73432
 20
1.79826
  0
VERTEX
 10
2.72766
 20
1.79571
  0
VERTEX
 10
2.74766
 20
1.80337
  0
SEQEND
  0
POLYLINE
 70
     0
  0
VERTEX
 10
2.71457
 20
1.83656
  0
VERTEX
 10
2.70568
 20
1.83316
  0
VERTEX
 10
2.71589
 20
1.8065
  0
VERTEX
 10
2.72478
 20
1.8099
  0
VERTEX
 10
2.71457
 20
1.83656
  0
VERTEX
 10
2.73235
 20
1.84337
  0
VERTEX
 10
2.73575
 20
1.83448
  0
SEQEND
  0
POLYLINE
 70
     1
  0
VERTEX
 10
2.3308
 20
1.80983
  0
VERTEX
 10
2.43486
 20
2.01719
  0
VERTEX
 10
2.43486
 20
2.01719
  0
VERTEX
 10
2.64223
 20
1.91313
  0
SEQEND
  0
POLYLINE
 70
     0
  0
SEQEND
  0
POLYLINE
 70
     0
  0
VERTEX
 10
2.53003
 20
1.91869
  0
VERTEX
 10
2.49416
 20
1.90679
  0
VERTEX
 10
2.48821
 20
1.92473
  0
VERTEX
 10
2.52408
 20
1.93663
  0
VERTEX
 10
2.51813
 20
1.95457
  0
VERTEX
 10
2.48226
 20
1.94267
  0
SEQEND
  0
POLYLINE
 70
     0
  0
VERTEX
 10
2.47622
 20
1.90084
  0
VERTEX
 10
2.45828
 20
1.89489
  0
VERTEX
 10
2.44638
 20
1.93077
  0
VERTEX
 10
2.46432
 20
1.93672
  0
VERTEX
 10
2.42845
 20
1.92482
  0
VERTEX
 10
2.43241
 20
1.91286
  0
SEQEND
   0
ENDSEQ
  0
EOF
